<svg id="_Layer_" data-name="&lt;Layer&gt;" xmlns="http://www.w3.org/2000/svg" xmlns:xlink="http://www.w3.org/1999/xlink" viewBox="0 0 1620.67 473.55"><defs><style>.cls-1{fill:#fff;}.cls-2{fill:url(#New_Gradient_Swatch_2);}</style><linearGradient id="New_Gradient_Swatch_2" x1="236.78" y1="460.72" x2="236.78" y2="14.47" gradientUnits="userSpaceOnUse"><stop offset="0" stop-color="#004b46"/><stop offset="0.17" stop-color="#00514c"/><stop offset="0.38" stop-color="#00615c"/><stop offset="0.63" stop-color="#007c77"/><stop offset="0.85" stop-color="#009b96"/></linearGradient></defs><title>Mdir_logo_sekundaer_neg_RGB_ENG</title><path class="cls-1" d="M473.55,0H0V473.55H473.55V0Z"/><rect class="cls-2" x="11.58" y="11.58" width="450.39" height="450.39"/><polygon class="cls-1" points="270.19 139.44 236.78 172.12 203.36 139.44 125.78 139.44 125.78 326.35 203.36 326.35 203.36 307.47 270.19 307.47 270.19 326.35 347.77 326.35 347.77 139.44 270.19 139.44"/><path class="cls-1" d="M776.14,75.87c-.12-9-.62-10-10.59-9.72V60.9s35.63.36,44.49,0c8.74,0,18.72-.38,25.21,6.37,3.62,3.73,4.24,6.49,4.24,11.6,0,11.74-8.24,19.1-18.59,22.84l22.58,34.2c1.89,2.62,5.63,5.23,8.76,5.61v5.23H828.89l-28-43.54.88-2.26c11.49,1,20-6.1,20-17.84,0-10.23-7.12-15.47-16.84-15.47-2.5,0-11.11.1-11.11.1s-.07,2.53-.07,3.4v60.64c0,9,.5,10,10.61,9.62v5.36H765.54v-5.23c10,.25,10.47-.74,10.59-9.74Z"/><path class="cls-1" d="M1003.37,75.24c-.28-7.74-.76-8.74-10.75-9.6V60.9h66l-.5,4.61-1.25,13.73h-4.74c0-2.73-.24-5.61-.5-8.36-.13-2-3-2.49-5.75-2.75-4.48-.37-24.93-.25-24.93-.25L1021,99h19.6c1.74,0,3.5,0,3.86-2.24a26.48,26.48,0,0,0,.89-7.49h5V116H1045c-.26-2.63.11-5.23-.63-7.74-.62-2.86-4.62-3.11-6.87-3.11H1021v33.69c20.22,0,28.3-.25,31.57-1.49.88-2.25,1.62-7.74,2.49-12.1h4.86l-1.24,21.45H996.37v-3.61c5.74-1.25,7-3.75,7-9.24Z"/><path class="cls-1" d="M563,75.87c0-9-.5-10-10.6-9.61V60.9l25.45.25,29.07,36.06L626.73,120l2.87,3.13V75.87c0-9-.5-10-10.61-9.61V60.9h28.57v5.36c-10.1-.37-10.6.63-10.6,9.61v70.95l-.38.62-10-.77L570.34,80.49v51.28c0,9,.5,10,10.61,9.61v5.37H552.38v-5.37c10.1.38,10.6-.62,10.6-9.61Z"/><path class="cls-1" d="M1351.71,75.87c0-9-.5-10-10.61-9.61V60.9l25.45.25,29.07,36.06L1415.46,120l2.87,3.13V75.87c0-9-.5-10-10.6-9.61V60.9h28.57v5.36c-10.11-.37-10.6.63-10.6,9.61v70.95l-.38.62-10-.77-56.25-66.18v51.28c0,9,.5,10,10.6,9.61v5.37H1341.1v-5.37c10.11.38,10.61-.62,10.61-9.61Z"/><path class="cls-1" d="M661.07,104.57c0-29.45,18.85-45.17,47.42-45.17,26.83,0,45.17,14.22,45.17,42.17,0,29.32-18.84,46.66-47.66,46.66C678,148.24,661.07,133,661.07,104.57Zm18.72-2.12c0,9.11,1.75,19,6.36,26.83,5,8.61,12.1,12,22,12,20.71,0,26.83-18.46,26.83-36.06,0-9.11-1.25-18.59-5.74-26.57-5.12-8.86-12-12.23-22-12.23C685.28,66.39,679.79,83.73,679.79,102.45Z"/><path class="cls-1" d="M959.13,85.1,961.38,75c1.62-7.24-1.13-8.74-8.86-8.74V60.9h27v5.36c-3.87,0-7.24,1.5-9.49,8.49-4.74,15-17,61.88-19.34,71.74h-9.11c-2-6.37-14.1-36.43-23.33-59.89-10.73,25.58-21.58,49.78-25.21,59.89h-8.73L866.93,71.38c-1.25-4.61-5.74-5-8.61-5.12V60.9H894.5v5.36c-8.12,0-9.61,1.5-8,9.11l9.85,45.29c8.24-20.21,16.47-40.18,24.83-60.13h5.62c2,5.73,4,11.23,6.11,16.59L950,119.54Z"/><path class="cls-1" d="M1145.35,121.66a4,4,0,0,0-2.25-3.74c-2.62-1.25-6.62-1-11.48-1.12v-5.12h36.56v4.24a12.46,12.46,0,0,0-3.62,1.25l-1.25,1.25a112.11,112.11,0,0,0-.5,13c0,3.24,0,6.49.25,9.6-11.48,4.25-23.58,7.24-35.94,7.24-13.35,0-25.58-2.36-35.93-11.35-10.11-8.86-14-20-14-33.19,0-14.1,4.24-25.33,15.72-33.93,10.35-8,22.83-10.36,35.68-10.36,5.49,0,16,.5,30.44,6,1.87.75,3.12,1.5,2.87,2.87l-2.37,17.35h-4.87a57.75,57.75,0,0,0-.87-10.48c-4.87-5.86-16-8.73-23.33-8.73-10,0-18.84,2.5-25.71,10.11-6.74,7.36-8.74,15.72-8.74,25.46,0,20.46,11.11,39.42,33.57,39.42a43.71,43.71,0,0,0,15.72-3.24Z"/><path class="cls-1" d="M1194.52,75.87c-.13-9-.62-10-10.61-9.73V60.9h38.8v5.36c-10.1-.37-10.6.63-10.6,9.61v55.9c0,9,.5,10,10.6,9.61v5.37h-38.8V141.5c10,.25,10.48-.75,10.61-9.73Z"/><path class="cls-1" d="M1261.12,120.41l-5.62,16.85c-1.24,3.62,7.12,3.74,9.61,4.49v5h-28.2v-5.37a13.77,13.77,0,0,0,7.11-1.5c3.24-3.37,4.62-8,6.36-12.1l19.71-48.41,3.24-8.61,2.12-5.12,1.87-5.11h8.86L1318.51,136c2.12,4.87,3.24,4.74,8.36,5.36h1.49v5.37h-38.68v-5c3.37-.75,11-.25,9.36-4.49l-6.61-16.85Zm3-7h25.45l-13-31.69Z"/><path class="cls-1" d="M771.9,359.13c-.27-7.74-.77-8.73-10.75-9.6v-4.74h66l-.5,4.61-1.25,13.73h-4.74c0-2.74-.24-5.61-.5-8.36-.13-2-3-2.49-5.75-2.75-4.48-.37-24.92-.25-24.92-.25l0,31.08h19.6c1.75,0,3.5,0,3.85-2.24a26.21,26.21,0,0,0,.89-7.48h5v26.82h-5.23c-.26-2.62.11-5.23-.64-7.74-.61-2.86-4.61-3.11-6.86-3.11h-16.6v33.69c20.23,0,28.31-.25,31.58-1.49.88-2.25,1.63-7.73,2.49-12.1h4.87l-1.25,21.45H764.9V427c5.74-1.25,7-3.75,7-9.24Z"/><path class="cls-1" d="M861.67,360.44c0-9-.5-10-10.61-9.61v-5.36l25.45.25,29.07,36.05,19.84,22.84,2.87,3.12V360.44c0-9-.5-10-10.61-9.61v-5.36h28.57v5.36c-10.1-.37-10.6.63-10.6,9.61v70.94l-.38.62-10-.77L869,365.05v51.28c0,9,.5,10,10.61,9.6v5.37H851.06v-5.37c10.11.38,10.61-.62,10.61-9.6Z"/><path class="cls-1" d="M721.76,405.55a4,4,0,0,0-2.25-3.74c-2.62-1.25-6.61-1-11.47-1.12v-5.12H744.6v4.24a12.37,12.37,0,0,0-3.62,1.25l-1.25,1.25a112.6,112.6,0,0,0-.5,13c0,3.24,0,6.49.25,9.6-11.48,4.25-23.58,7.24-35.94,7.24-13.34,0-25.57-2.37-35.93-11.36-10.1-8.86-14-20-14-33.18,0-14.11,4.24-25.33,15.72-33.94,10.35-8,22.83-10.36,35.68-10.36,5.49,0,16,.5,30.44,6,1.88.75,3.13,1.5,2.87,2.87L736,369.5h-4.87a57.94,57.94,0,0,0-.87-10.48c-4.87-5.86-16-8.73-23.34-8.73-10,0-18.84,2.49-25.71,10.11-6.73,7.36-8.73,15.72-8.73,25.45,0,20.46,11.11,39.42,33.56,39.42A43.72,43.72,0,0,0,721.76,422Z"/><path class="cls-1" d="M576.17,404.3l-5.61,16.85c-1.25,3.62,7.11,3.74,9.6,4.49v5H552v-5.37a13.8,13.8,0,0,0,7.11-1.49c3.24-3.37,4.61-8,6.36-12.1l19.71-48.42,3.24-8.61,2.13-5.12,1.87-5.11h8.86l32.31,75.49c2.12,4.86,3.24,4.74,8.36,5.36h1.5v5.37H604.74v-5c3.37-.75,11-.25,9.36-4.49l-6.61-16.85Zm3-7h25.45l-13-31.7Z"/><path class="cls-1" d="M1036.9,425.26c-8.61,5.25-18.71,6.87-28.69,6.87-12.73,0-25.83-3-35.43-11.73s-14-21.21-14-34.06c0-28.7,23.33-43,49.9-43a86,86,0,0,1,28.45,4.61c1,.37,2.38.63,2,2.49-.74,4-1.74,13.73-2,19.22h-4.87a102.13,102.13,0,0,0-.74-10.73c-6-6.37-13.85-8.61-22.33-8.61-9.24,0-18.09,3.37-24.21,10.48-5.49,6.36-7.37,15.6-7.37,24,0,10.48,2.62,20.58,9.86,28.45,7.61,8.23,15.85,10.85,26.83,10.85,7.36,0,17.46-2.62,23.83-6.36l1.5,1.5Z"/><path class="cls-1" d="M1096.92,385.59c9.85-16.22,18.59-29.95,23.46-40.18H1130v2.38l-5.12,7.11-13.22,20.21-5.62,9-3.87,8c-.75,1.62-.75,3.87-.75,5.87v17.71c0,9,.5,10,10.6,9.6v5.37h-38.81v-5.24c10,.25,10.48-.75,10.61-9.73V399.94a18.16,18.16,0,0,0-1.12-6.62c-1.25-2.87-2.87-5.36-4.37-8.1l-14.24-22.79a105.46,105.46,0,0,0-6.49-8.36,12.84,12.84,0,0,0-9.73-4.12v-4.61h24.54c5,3.9,8.12,9.37,11.16,14.93Z"/><path class="cls-1" d="M918.15,217.81c-.12-9-.62-10-10.59-9.72v-5.24s35.64.36,44.5,0c8.74,0,18.72-.38,25.21,6.36,3.62,3.73,4.24,6.49,4.24,11.6,0,11.73-8.24,19.1-18.59,22.84l22.57,34.2c1.89,2.62,5.63,5.23,8.76,5.61v5.23H970.89l-28-43.55.88-2.25c11.49,1,20-6.1,20-17.84,0-10.24-7.12-15.47-16.84-15.47-2.5,0-11.11.1-11.11.1s-.07,2.53-.07,3.4v60.64c0,9,.5,10,10.6,9.62v5.36H907.55v-5.23c10,.25,10.47-.74,10.59-9.74Z"/><path class="cls-1" d="M563.13,217.18c-.28-7.73-.77-8.74-10.75-9.6v-4.74h66l-.49,4.61-1.25,13.73H611.9c0-2.74-.24-5.61-.5-8.36-.14-2-3-2.49-5.75-2.75-4.49-.36-24.92-.25-24.92-.25l0,31.08h19.6c1.74,0,3.49,0,3.86-2.25a26.57,26.57,0,0,0,.88-7.48h5V258h-5.24c-.26-2.63.12-5.23-.63-7.74-.62-2.86-4.61-3.11-6.86-3.11H580.7v33.68c20.23,0,28.32-.25,31.59-1.49.87-2.24,1.62-7.73,2.48-12.1h4.87l-1.24,21.45H556.13v-3.61c5.73-1.25,7-3.75,7-9.24Z"/><path class="cls-1" d="M1360.84,217.18c-.28-7.73-.77-8.74-10.76-9.6v-4.74h66l-.49,4.61-1.26,13.73h-4.73c0-2.74-.24-5.61-.5-8.36-.14-2-3-2.49-5.75-2.75-4.49-.36-24.93-.25-24.93-.25l0,31.08H1398c1.75,0,3.5,0,3.86-2.25a26.35,26.35,0,0,0,.89-7.48h5V258h-5.24c-.26-2.63.11-5.23-.64-7.74-.61-2.86-4.61-3.11-6.86-3.11h-16.59v33.68c20.23,0,28.31-.25,31.58-1.49.87-2.24,1.62-7.73,2.48-12.1h4.87l-1.25,21.45h-62.26v-3.61c5.74-1.25,7-3.75,7-9.24Z"/><path class="cls-1" d="M650.59,218.49c0-9-.5-10-10.61-9.6v-5.37l25.45.25,29.07,36.05,19.84,22.83,2.87,3.12V218.49c0-9-.5-10-10.61-9.6v-5.37h28.57v5.37c-10.11-.38-10.6.63-10.6,9.6v70.94l-.38.63-10-.77-56.25-66.18v51.29c0,9,.51,10,10.61,9.6v5.37H640V284c10.11.37,10.61-.62,10.61-9.6Z"/><path class="cls-1" d="M1116.69,218.49c0-9-.5-10-10.61-9.6v-5.37l25.45.25,29.07,36.05,19.84,22.83,2.87,3.12V218.49c0-9-.5-10-10.61-9.6v-5.37h28.58v5.37c-10.11-.38-10.61.63-10.61,9.6v70.94l-.38.63-10-.77L1124,223.11v51.29c0,9,.5,10,10.6,9.6v5.37h-28.57V284c10.11.37,10.61-.62,10.61-9.6Z"/><path class="cls-1" d="M1447.33,218.49c0-9-.5-10-10.61-9.6v-5.37l25.45.25,29.07,36.05,19.84,22.83,2.87,3.12V218.49c0-9-.5-10-10.61-9.6v-5.37h28.57v5.37c-10.11-.38-10.6.63-10.6,9.6v70.94l-.39.63-10-.77-56.25-66.18v51.29c0,9,.5,10,10.6,9.6v5.37h-28.57V284c10.11.37,10.61-.62,10.61-9.6Z"/><path class="cls-1" d="M857.19,217.82c-.12-9-.62-10-10.61-9.73v-5.24h38.8v5.37c-10.1-.37-10.6.63-10.6,9.6v55.9c0,9,.5,10,10.6,9.6v5.37h-38.8v-5.24c10,.25,10.48-.75,10.61-9.73Z"/><path class="cls-1" d="M796.75,267.72l19.71-49.78c.75-2.75,1.87-5.24,1.87-6.49,0-2.37-5.37-3.24-10.35-3.24v-5.37h28.82v5.37c-5.87,0-7.11.25-9.61,5.74-10.48,25-20.71,49.66-30.94,74.49h-9.47l-29.83-71.36a14.11,14.11,0,0,0-12.85-8.86v-5.37h40.3v5.37c-4.36,0-9.23,0-9.61,2.24-.5,3,1.25,6.24,2.37,9Z"/><path class="cls-1" d="M1001.81,246.52c0-29.45,18.85-45.17,47.42-45.17,26.82,0,45.16,14.23,45.16,42.18,0,29.32-18.84,46.66-47.66,46.66C1018.78,290.18,1001.81,275,1001.81,246.52Zm18.72-2.12c0,9.11,1.75,19,6.36,26.82,5,8.61,12.11,12,22,12,20.71,0,26.82-18.47,26.82-36.06,0-9.1-1.25-18.59-5.74-26.57-5.11-8.85-12-12.23-22-12.23C1026,208.34,1020.53,225.68,1020.53,244.4Z"/><path class="cls-1" d="M1561.65,288.69v-5.24c10,.25,10.48-.75,10.6-9.73V211.21h-18.34a5.49,5.49,0,0,0-5.69,4.73c-.22,2.12-.29,4.5-.54,7.62h-4.54l-.83-20.71h78.36l-.82,20.71h-4.54c-.25-3.12-.32-5.5-.55-7.62a5.49,5.49,0,0,0-5.7-4.73h-18.34v62.51c.13,9,.63,10,10.6,9.73v5.24Z"/><path class="cls-1" d="M1334.57,208.83v-5.37h-28.82s-14.34,31.06-23.46,50.54c-1.75,3.75-3.5,7.37-5.49,11l-19.71-41.18c-2.87-5.49-9.37-20.35-9.37-20.35h-29.93v5.37c10.11-.39,10.6.62,10.6,9.6v55.91c0,9-.5,10-10.6,9.6v5.37h28.56v-5.37c-10.1.38-10.6-.62-10.6-9.6v-54l28.69,59.27c.27.58.59,1.25.9,1.91h11.8l15.75-33.86,13.48-27.2v53.9c-.13,9-.63,10-10.61,9.74v5.23h38.81v-5.37c-10.1.38-10.59-.62-10.59-9.6V218.43C1324,209.45,1324.47,208.44,1334.57,208.83Z"/></svg>