<svg id="Layer_1" data-name="Layer 1" xmlns="http://www.w3.org/2000/svg" viewBox="0 0 1023.86 927.27"><defs><style>.cls-1{fill:#fff;}.cls-2{fill:#f1f1f1;}.cls-3{fill:#b8cddf;}.cls-4{fill:#bccfe1;}.cls-5{fill:#769ec3;}.cls-6{fill:#81a6c8;}.cls-7{fill:#8eafcd;}.cls-8{fill:#bbcfe0;}.cls-9{fill:#7ca2c5;}.cls-10{fill:#5f8fb9;}.cls-11{fill:#7ba2c5;}.cls-12{fill:#a0bcd5;}.cls-13{fill:#a7c1d8;}.cls-14{fill:#79a0c4;}.cls-15{fill:#9ab8d2;}.cls-16{fill:#a9c2d9;}.cls-17{fill:#f5f7fb;}.cls-18{fill:#f1f4fa;}.cls-19{fill:#eef2f9;}.cls-20{fill:#fdfdfe;}.cls-21{fill:#abc3da;}.cls-22{fill:#adc5db;}.cls-23{fill:#8badcc;}.cls-24{fill:#dee6f3;}.cls-25{fill:#fcfdfd;}.cls-26{fill:#eaf0f6;}.cls-27{fill:#dfe8f0;}.cls-28{fill:#d2dfeb;}.cls-29{fill:#f9fafc;}.cls-30{fill:#eff2f9;}.cls-31{fill:#f4f6fb;}.cls-32{fill:#eff3f8;}.cls-33{fill:#d3e0ec;}.cls-34{fill:#e5ebf6;}.cls-35{fill:#a1bcd5;}.cls-36{fill:#ecf0f8;}.cls-37{fill:#e0e7f4;}.cls-38{fill:#030303;}.cls-39{fill:#9cb3c8;}.cls-40{fill:#fbfcfc;}.cls-41{fill:#fafcfc;}.cls-42{fill:#e2e6eb;}.cls-43{fill:#f9fafb;}.cls-44{fill:#f7f9fb;}.cls-45{fill:#8ca1b4;}.cls-46{fill:#f0f4f8;}.cls-47{fill:#4b555d;}.cls-48{fill:#585e64;}.cls-49{fill:#f4f7fb;}.cls-50{fill:#f8fbfc;}.cls-51{fill:#e6edf4;}.cls-52{fill:#aac3d9;}.cls-53{fill:#b2c8dd;}.cls-54{fill:#b6ccde;}.cls-55{fill:#b2b4b6;}.cls-56{fill:#010101;}.cls-57{fill:#c4cad4;}.cls-58{fill:#a4a9b1;}.cls-59{fill:#969da7;}.cls-60{fill:#e9eef7;}.cls-61{fill:#e7edf7;}.cls-62{fill:#060606;}.cls-63{fill:#bbcee1;}.cls-64{fill:#5c5d61;}.cls-65{fill:#6f7f8e;}.cls-66{fill:#8598aa;}.cls-67{fill:#aaadb1;}.cls-68{fill:#a5a6a9;}.cls-69{fill:#edf2f7;}.cls-70{fill:#b9babc;}.cls-71{fill:#a8a9ab;}.cls-72{fill:#9fadba;}.cls-73{fill:#96a7b7;}.cls-74{fill:#798289;}.cls-75{fill:#707275;}.cls-76{fill:#999ea5;}.cls-77{fill:#ebf0f8;}.cls-78{fill:#f3f5f9;}.cls-79{fill:#9ab0c4;}.cls-80{fill:#f0f2f6;}.cls-81{fill:#f2f5f9;}.cls-82{fill:#d0dde7;}.cls-83{fill:#768089;}.cls-84{fill:#5c646c;}.cls-85{fill:#b5b9c0;}.cls-86{fill:#676a6d;}.cls-87{fill:#6a6b6f;}.cls-88{fill:#626a72;}.cls-89{fill:#62696f;}.cls-90{fill:#606266;}.cls-91{fill:#586168;}.cls-92{fill:#5a5b5d;}.cls-93{fill:#5d646b;}.cls-94{fill:#44494e;}.cls-95{fill:#65676a;}.cls-96{fill:#c4c4c4;}.cls-97{fill:#464646;}.cls-98{fill:#b3c9de;}.cls-99{fill:#aac3d8;}.cls-100{fill:#caced4;}.cls-101{fill:#b0b2b8;}.cls-102{fill:#cbcfd6;}.cls-103{fill:#9a9b9c;}.cls-104{fill:#dadada;}.cls-105{fill:#84868a;}.cls-106{fill:#8fa2b3;}.cls-107{fill:silver;}.cls-108{fill:#bcbcbc;}.cls-109{fill:#e7e7e7;}.cls-110{fill:#dfe0e0;}</style></defs><title>SEATRACK1webpage</title><ellipse id="_Path_" data-name="&lt;Path&gt;" class="cls-1" cx="506.42" cy="466.7" rx="295.97" ry="348.15"/><g id="_Group_" data-name="&lt;Group&gt;"><path class="cls-2" d="M954.78,175.31c34.06-14.81,69-27.24,105.31-35.05,22.38-4.82,45.47-6.64,68,.35,15.62,4.85,26.7,20.87,27.14,37,.67,24.36-9.43,45.2-21.43,65.24a504.27,504.27,0,0,1-63.2,83.49c-1.47,1.59-2.88,3.13-2.8,5.47a6.77,6.77,0,0,0-3.83,3.63c-9,7.21-15.86,16.55-23.81,24.8-30.65,31.84-62.17,62.7-100.36,85.7-4.12,2.48.54,2.91.5,4.35-4.2-.11-8.32-.05-12.07,2.42C917.76,459.63,906.42,464.9,895,470c-2,.91-3.91,1.43-3.93,4-5.39-.68-10,1.85-14.72,3.72-29.1,11.45-59,18.37-90.54,18.54-11.43.06-23.06-4-34.42.73-1.31.54-2.08-.75-2.74-1.8-2.12-3.41-5.82-4-9.21-5.19-5.95-2.15-11.79-4.58-17.68-6.89l-9-5.5-9.16-7c-4.72-6.5-11-11.54-15.05-18.85-11.9-21.6-16.05-44.55-14.2-68.85,2.69-14.22,5.62-28.36,13.48-41-.73,12.89-6.73,24.6-8,37.32-3.92,15-2.12,29.79,2.33,44.18,3.63,11.75,8.4,23.22,19.4,30.49,2.46,7,8.8,9.7,14.59,12.56,3.89,1.91,7.32,6.56,12.72,3.88,7.29,6.42,16.92,5.48,25.38,8.23,4.3,1.4,6.89.1,9.46-2.79.52,5.44,4.76,3.54,7.68,3.67,39.31,1.78,75.89-9.13,111.13-25.07a365.27,365.27,0,0,0,95.26-62.2c27.63-25,52.91-52.19,77.27-80.3,1.54-.77,1.76-2.21,1.87-3.7.86-.25,2-.22,2.53-.79,19.12-21.37,36.81-43.85,51.92-68.26,9.25-14.94,17-30.64,21.17-47.82,4.18-17-2.82-29.76-16.9-32.48s-28.44-1.82-42.19.59c-32.1,5.62-63,15.86-93.3,27.91-2.85,1.13-6.77,1.67-7.06,6.07A111,111,0,0,1,954.78,175.31Z" transform="translate(-131.41 -56.9)"/><path class="cls-2" d="M335.72,867.34c-4.56-3.22-8.82-.63-12.84,1.06a470.49,470.49,0,0,1-95.78,29.08c-20.62,3.9-41.94,6.19-62.67-.74-26.12-8.73-37-30.75-31.73-57.89,6.37-32.89,25-59.08,43.2-85.65,9.16-13.4,19.53-26,29.68-38.68,3.35-4.19,6.93-8.44,11.87-11.07l10.46,21.89c-2.88-1.8-3.89,0-5.58,2.18-11.15,14.23-22.75,28.09-33.09,43-15.07,21.67-28.33,44.15-35.06,70-5.25,20.13,3.36,35.94,22.37,37.49,16.48,1.34,33.16,1.23,49.65-2.2,21-4.36,41.3-11,61.88-16.75,9-2.5,19-4,25.76-11.87,1.72.41,3.45.79,5.17,0a483.8,483.8,0,0,0,50-21c12.53-6,12.19-5.8,18.61,6.42,3,5.7,1.26,7.72-3.81,9.94-14.34,6.27-28.52,12.91-42.76,19.4-1.48,0-2.84.32-3.64,1.75C335.51,864.3,335.56,865.79,335.72,867.34Z" transform="translate(-131.41 -56.9)"/><path class="cls-3" d="M337.37,863.65c.8-1.44,2.16-1.73,3.64-1.75,2.89,5.82,8.14,9.58,12.91,13.41,19,15.31,38.87,29.61,60,41.79,11.15,6.42,22.09,13.51,34.46,17.67,3.84,3.6,8.7,5.38,13.46,7.23,25.64,10,52.06,17.54,78.2,26,3,1,5.9,1.06,8.87,1.52,14.52,2.25,29,4.71,43.52,7.1,24.19,2.1,48.43,2.23,72.68,1.78,11-3.91,22.66-1.74,34-3,18.26-2,36.11-6,54-9.37,28.09-5.38,54.54-16.77,80.9-27.67,12.1-5,24.75-9.59,35.16-18.16,3.51-.09,6.34-2,9.17-3.69,32.19-18.78,61-41.95,88.32-67.19,8.69-8,15.46-17.81,24.07-25.85a31.82,31.82,0,0,0,9.67-16.18c2.73-.87,7.2-.62,3.61-5.58a43.36,43.36,0,0,1,7.32-10.82c1.47,2.2,3.14,1.64,4.31-.06,7.65-11.14,15.68-22,21.31-34.43,7.22-9.82,11-21.44,16.79-32,17.39-31.8,29.09-65.61,36.8-100.95,7.48-34.27,12.12-68.83,11.95-104-.07-13.9-2.5-27.68-2.08-41.63a100.39,100.39,0,0,0-1.2-15.3c-1.11-9-4.46-17.59-4.3-26.74,2.35-1.41,1.69-3.29,1.25-5.5-4.6-23.29-12.29-45.72-19.4-68.28-2.95-9.35-6.3-18.81-12.75-26.62a6.77,6.77,0,0,1,3.83-3.63,457.29,457.29,0,0,1,35,118.67,491.5,491.5,0,0,1,4.37,110.43c-2.64,37.3-11.36,73.82-23.65,109.38C1066,720.82,1041,767,1007.47,808.73c-11,13.68-22.3,27.06-34.6,39.58C953.09,868.44,931,885.65,908,902c-35.4,25.08-74,43.62-114.76,57.78A414.11,414.11,0,0,1,714,978.34c-24.81,3.44-49.67,6.74-74.86,5.59-31.59-1.44-62.94-4.13-94-10.78A442.71,442.71,0,0,1,429,930.48c-22.09-11.77-44.3-23.44-63.33-40.12-1.95-1.71-5.14-1.83-6.64-4.42,2.18-4.5-2.28-5.26-4.29-7C348.85,873.94,342.34,869.67,337.37,863.65Z" transform="translate(-131.41 -56.9)"/><path class="cls-3" d="M954.78,175.31a111,111,0,0,0,18.29,18.12,59.22,59.22,0,0,0,4,4.84c32.79,32.16,58.31,69.59,79.81,109.95-.11,1.5-.33,2.93-1.87,3.7-13.47-23.91-27.29-47.52-44.23-69.28q-18.64-24-39.36-46c-17.59-18.74-38.45-33.9-58.83-49.31-27.51-20.79-58.11-36.76-89.38-51.2-4.65-2.15-9.79-6.35-15.86-3l-5.59-1.62c-5-1.53-10.21-2.36-14.6-5.45,1.4-.26,3.05.45,4.25-1.28-7.42-2.54-14.65-5.58-22.16-7.4-5.42-1.31-11.38-5-16.82.82A2.9,2.9,0,0,1,747.94,77c-2.94-6.3-2.95-6.3-9.87-3.67-7.45-1-15-1.72-22.35-3a477.9,477.9,0,0,0-56.53-6.07c-35.8-2-71,3.37-106.2,9a248.42,248.42,0,0,0-52.19,14.5c-3.42,1.35-6.32,4.27-10.42,3.69-2.83-.24-5.41.82-7.87,1.89-17.71,7.71-35.58,15.11-53,23.52-6.88,3.33-14.23,6.66-19.36,12.94-12.71,5.12-23.54,13.47-34.54,21.25a388,388,0,0,0-37.22,30.11c-7.09,6.46-15.84,11.29-21,19.77-6.44,3.26-8.27,11.17-14.64,14.5h-1.82l-2-2,2.13-3.52c7.14-3.2,12.86-9.09,14.28-14.69,9.52-6.57,17.33-15.24,25.4-23.23,19.84-19.66,43.4-33.86,66.6-48.57,24.11-15.29,50.31-26.59,76.92-36.83,33.13-12.75,67.59-20.74,102.6-25.48,21.78-3,43.93-4.8,66-3.95C711.27,59.35,768,69.8,822.16,92.57a475.46,475.46,0,0,1,117.16,70.19C944.46,167,948.95,172,954.78,175.31Z" transform="translate(-131.41 -56.9)"/><path class="cls-4" d="M300.92,215.34h1.82c-.87,1.21-1.67,2.5-2.64,3.63-16.6,19.42-32.63,39.25-44.71,61.93-6.18,6-8.92,14.19-13.26,21.34-4.84,8-7.37,17.26-14.06,24.14-1.33-3,3.64-6,0-9.07,3.92-11.49,10.82-21.25,17.82-31,3.25-1.46,5.74-3.32,3.88-7.44,8.62-18,22.08-32.66,33.73-48.55,3-4.09,6.68-7.69,10-11.52C297.56,221,298,215.53,300.92,215.34Z" transform="translate(-131.41 -56.9)"/><path class="cls-5" d="M182.82,561.53c-3.37-19.16-1.92-38.5-2.06-57.76-.16-21.66,4.17-42.83,7.69-64.07,1-6.17,2.2-12.32,3.31-18.48,1.68.79,1.72,2.41,2,3.91a23.27,23.27,0,0,1-.26,3.62c-6.72,29.64-8.77,59.72-9.13,90-.19,16.09,1.58,32,1.86,48.09C183.73,566,185,562.64,182.82,561.53Z" transform="translate(-131.41 -56.9)"/><path class="cls-6" d="M227.91,725.34l-10.46-21.89-3.61-9.09,3.69,0c3.17,3.41,4.73,7.77,6.29,11.94,7.14,19.08,17.76,36.32,27.9,53.81,0,1.48-.21,2.89-1.81,3.58C240.82,751.88,235.14,738.16,227.91,725.34Z" transform="translate(-131.41 -56.9)"/><path class="cls-7" d="M193.76,425.14c-.28-1.5-.33-3.13-2-3.91,4.12-22.65,11.21-44.4,19.92-65.66,3.62,2.81.13,5.54-.49,7.94-2.11,8.3-6.47,16-6.94,24.77a20.91,20.91,0,0,0-3.5,12.84C197.6,408.88,197.32,417.48,193.76,425.14Z" transform="translate(-131.41 -56.9)"/><path class="cls-8" d="M204.25,388.26c.46-8.79,4.82-16.47,6.94-24.77.61-2.4,4.1-5.13.49-7.94,0-5.54,3.17-9.92,5.44-14.63l.5,4.17,3.31-2.18c-2.27,12-8.32,22.72-11.05,34.53-3.25,3-2.24,8-5.26,11.06Z" transform="translate(-131.41 -56.9)"/><path class="cls-9" d="M211.45,683.54c-6.14-10.79-8.89-22.82-12.64-34.48.26-2.09-.4-4.53,2.14-5.78l12.67,40.16Z" transform="translate(-131.41 -56.9)"/><path class="cls-10" d="M182.82,561.53c2.19,1.11.91,4.44,3.42,5.34l3.8,30.72c-.46,2,.38,4.36-1.94,5.68C186.45,589.34,181.07,575.89,182.82,561.53Z" transform="translate(-131.41 -56.9)"/><path class="cls-11" d="M188.1,603.27c2.32-1.32,1.48-3.72,1.94-5.68,3.1,12.65,7,25.14,7.23,38.33a6.2,6.2,0,0,0-.09,1.76c-6.1-8.51-5.15-18.94-7.7-28.42C188.94,607.28,188.55,605.27,188.1,603.27Z" transform="translate(-131.41 -56.9)"/><path class="cls-12" d="M220.93,342.92l-3.31,2.18-.5-4.17,11-23.61c3.64,3-1.34,6,0,9.07-1.49.81-1.63,2.26-1.77,3.71-2.91,2.35-3.81,5.51-3.66,9.09C222.55,340.66,222.3,342.05,220.93,342.92Z" transform="translate(-131.41 -56.9)"/><path class="cls-7" d="M337.37,863.65c5,6,11.48,10.29,17.34,15.3,2,1.72,6.48,2.48,4.29,7l-23.28-18.6C335.56,865.79,335.51,864.3,337.37,863.65Z" transform="translate(-131.41 -56.9)"/><path class="cls-13" d="M315.33,195.16c-1.42,5.6-7.14,11.49-14.28,14.69C304.81,204,310,199.53,315.33,195.16Z" transform="translate(-131.41 -56.9)"/><path class="cls-14" d="M211.45,683.54l2.17-.09c1.68,3.48,3.83,6.8,3.9,10.87l-3.69,0Z" transform="translate(-131.41 -56.9)"/><path class="cls-15" d="M197.18,637.68a6.2,6.2,0,0,1,.09-1.76c4.57.78,3.35,4.46,3.69,7.36-2.54,1.25-1.88,3.68-2.14,5.78C195.81,645.62,197.34,641.53,197.18,637.68Z" transform="translate(-131.41 -56.9)"/><path class="cls-13" d="M300.92,215.34c-2.92.2-3.36,5.63-7.38,3.5a13.39,13.39,0,0,1,5.38-5.46Z" transform="translate(-131.41 -56.9)"/><path class="cls-12" d="M249.76,278.91c1.86,4.12-.63,6-3.88,7.44C246.63,283.59,247.47,280.87,249.76,278.91Z" transform="translate(-131.41 -56.9)"/><path class="cls-16" d="M1064,335.44c6.45,7.81,9.8,17.27,12.75,26.62,7.11,22.56,14.8,45,19.4,68.28.44,2.21,1.1,4.09-1.25,5.5-5.71-5-9.71-11.43-14.38-17.31-1.8-2.26-2.19-7.53-6.9-5.46s-11,.82-13.4,7.57c-2.31,6.52-5.25,12.78-7,19.54-2,7.8-2.87,16-7.77,22.95-2.61,3.71-.36,5.4,3.63,5.61,6.57.34,11.31,2.64,12.78,10.07,4,20.26,7.05,40.35,1.11,60.89a78.45,78.45,0,0,0-2.76,16.93c-.76,12.69-3.28,25.09-9.13,36.56a90.35,90.35,0,0,0-5.48,14.39c-.67,2.15-3.1,4.6.27,6.17,2.74,1.28,4.64-1.15,5.93-3.08,4.6-6.89,6.93-14.71,8.59-22.74,1-5,2.49-9.63,6.67-12.89,2.6,1.69,2.53,3.83,2.62,6a233.71,233.71,0,0,1-2.52,43.34c-3.18,21.66-9.49,42.9-17.72,63.46-8.77,21.92-15.91,44.34-14.41,68.49l-23.7,34.61a43.36,43.36,0,0,0-7.32,10.82,5.76,5.76,0,0,0-3.61,5.58,31.82,31.82,0,0,1-9.67,16.18c-8.61,8-15.38,17.81-24.07,25.85-27.29,25.24-56.14,48.41-88.32,67.19-2.82,1.65-5.65,3.61-9.17,3.69-.16-3.14,2.76-4.72,3.69-7.31,6.76-7.1,11.1-15.09,9.31-25.33,2.85-2.47,1.3-6.56,3.41-9.31,0-3.91.47-7.87,0-11.74-.69-6.41,2.21-13.15-1.76-19.24h0a7.57,7.57,0,0,0-3.83-3.68c-11.65-5.63-18.64-12.94-11.25-26.88,2.51-4.74-.9-7.39-5.68-8.95-5.69-1.86-10.75.74-16,1.38-21.25,2.55-42.07,6.49-60.32,19a40.76,40.76,0,0,1-17.52,6.91c-4.25.6-9.16.3-13,3.26l-14.55-.07h0c-5.14-3.55-10.94-.93-16.37-1.72-15.71-3.88-29.13-11.58-41.49-22.17-12-10.3-15.42-23.5-16.82-38,26.11-8,49.76-21,72.83-35.27,22.66-14,42.24-32.14,63.7-47.76,15.1-11,30.22-22.16,43.18-35.78,6.22-6.54,11.24-14,19-19.25,14.29-9.59,27-21.23,40.22-32.26,12.24-10.22,25.91-18.58,39.65-26.82,11.59-6.94,24.88-11,34.94-20.53,5.78-5.47,4.38-10.48-3.92-13.69l-1.89.07c-1.07-2.19-2.88-2.77-5.22-2.71a123,123,0,0,0-28.52,3.54,160.87,160.87,0,0,1-46.39,5.31c-19.28-.59-38.91-3-57.89,3.28-3.22-6.73-10.88-4.83-15.84-8.16-14.91-10-26.22-3.66-37.68,7-7.73,7.22-9.89,16.38-13.87,25.14,6.08,2.3,10.92-.79,16-.61-3.85,4.76-9.57,2.51-14.33,3.82l-7.53-1.87c-6.1-.17-11.85-3.57-18.15-2h0c-7.63-2.64-15.66-2.87-23.56-3.83l-9.47-5.07c1.36-.56,3.12-.36,3.86-2.07,7.4-2.53,15-3.3,22.82-3.69,9-.45,10.18-3.65,7.82-12.22-2.72-9.91-8-16.55-17.81-19.68-1.33-.42-2.9-1.1-3.08-3,.64-2.53,2.84-3.61,4.72-5.13,6.08-5,12-10.08,17.92-15.24,2-1.75,2.91-4,1.12-6.43-2-2.8-4.29-1.16-6.41-.08-7.47,3.81-14.91,7.66-23.62,12.15,1.29-10.83-1.7-20.73,2.09-30.38,5.89,2.31,11.73,4.75,17.68,6.89,3.4,1.23,7.09,1.78,9.21,5.19.65,1.05,1.43,2.34,2.74,1.8,11.36-4.7,23-.67,34.42-.73,31.54-.18,61.44-7.09,90.54-18.54,4.74-1.87,9.33-4.39,14.72-3.72,1.15,4.62,2.65,9.19,3.35,13.88s.94,9.76,6,11c4.81,1.2,7.36-3.73,9.62-6.92,7.82-11,15.67-21.85,27.53-29.06,2.26-1.37,3.81-3.72,5.11-6.2,1.7-3.26.51-5.08-2.37-6.47,0-1.45-4.62-1.87-.5-4.35,38.19-23,69.71-53.86,100.36-85.7C1048.1,352,1054.92,342.65,1064,335.44ZM944.11,527.92c-4.4-5.82-8.24-4.06-12.49-.94-3.64,2.67-8,4.45-11.47,7.27-4.32,3.48-7.72,2.38-11-1.08-4-4.25-9.22-6.81-13.87-10.16-3.83-2.76-6.09-.19-8.15,2.62s-1,5.2,1.58,6.9a58.39,58.39,0,0,0,7.19,3.87c8.48,3.93,8.5,3.9,3.68,11.69a18.52,18.52,0,0,0,2.45.63c18.25,2.16,35.06-5.62,52.71-7.68,1.64-.19,2.54-1.38,3.16-2.88,2.56-6.23-.64-21.27-5.49-25.73-1.38-1.27-2.81-2.36-4.82-1.87-2.42.6-3.37,2.39-3.53,4.69C943.81,519.13,944,523,944.11,527.92ZM1030,610.17c2.13-.61,7.43,2.52,9-2.26a9.83,9.83,0,0,0-3-9.93,21.29,21.29,0,0,0-4.61-2.85A307,307,0,0,1,996,575c-5.24-3.43-10.92-6.61-17.2-8-1.84-.41-4.46-.92-5.41,1.85-.69,2,.61,3.49,2,4.73a39.3,39.3,0,0,0,3.62,2.69A347.55,347.55,0,0,1,1013.8,605C1018.06,609.06,1022.71,611.14,1030,610.17ZM878.58,548c-8.64-6.69-14.87-13.49-24.32-16.13a100.93,100.93,0,0,1-21.79-8.75,46.45,46.45,0,0,0-8.43-3.18,3.91,3.91,0,0,0-4.71,1.75c-1.29,2,0,3.36,1.13,4.79,3.32,4,8.25,4.74,12.79,6.21,7.26,2.34,14.31,4.88,17.83,12.53,1.12,2.44,3.18,3.92,5.82,3.31C863.51,547,870.12,549.27,878.58,548Zm156.36-51.9c4.14.56,7.74-.41,7.84-5.1.11-5.42,1.37-11.32-2.82-16-1-1.17-2.79-.84-4.26-.3-5.9,2.16-11.75,4.5-17.72,6.44-3.68,1.19-3,4-3.07,6.57-.12,3,.95,5.49,4.13,6.06C1024.31,494.7,1029.64,495.32,1034.94,496.08Z" transform="translate(-131.41 -56.9)"/><path class="cls-16" d="M807.38,93.16c6.06-3.36,11.21.84,15.86,3,31.27,14.44,61.87,30.41,89.38,51.2,20.39,15.41,41.24,30.56,58.83,49.31q20.7,22.06,39.36,46c16.94,21.77,30.76,45.38,44.23,69.28-24.36,28.11-49.64,55.28-77.27,80.3a365.27,365.27,0,0,1-95.26,62.2c-35.24,15.94-71.81,26.85-111.13,25.07-2.92-.13-7.16,1.77-7.68-3.67,8.37-5.94,7.44-13.43,3.68-21.48-1.64-3.52-4-6.74-3.79-11,.16-2.69,1.16-4.79,3.35-6.06,2.62-1.51,3.55,1.31,5.11,2.47s2.48,3.74,5.25,2.12c.75-3.81-2.94-4.95-4.5-7.25-7.77-11.48-7.87-11.41-16.91-.93-4.4,5.1-7.44,4.72-10.27-1.62-2.33-5.23-3.83-10.86-6.48-15.9-2.49-4.74-1.89-8.56-.26-13.56,3.39-10.42,8-21.12,2.79-32.43.61-10.61-2.07-21.26,2.19-31.87,3.09-7.71,5.58-14,15.63-14.21,5.85-.11,11.58-3.31,17.5-4.17,8.8-1.27,17.52-6.45,26.67-1.25.16.09.83-.69,1.28-1.09-3.05-7.26-7.1-14.53-3.67-22.4,4.91-11.27,3.93-23,4.35-34.75.21-5.9-2.09-7.67-7.43-6.83-2.08-1.69-3.62-4.11-6.36-4.91-8-2.33-11.36-8-12.39-15.9-1-7.52-5.94-11.94-12.3-15.71-12.47-7.39-24.65-15.28-36.76-23.27-7.66-5-7.23-10.94.69-15.3,6.06-3.34,6.56-6.07,1.63-11.07-4.22-4.28-8.78-8.18-14.49-10.44-3.22-5.05-8.7-7.25-13.38-10.42-10.34-7-13.58-5.59-16,6.6-1.13,5.77-3.61,6.79-8.89,3.93-3.59-1.94-4.92-5.1-5.46-8.8-1.56-10.77-2.83-11.94-14.7-13.29-9.83-4.75-20.23-6.16-31-5.32-5.48-2.3-11-3.06-16.44,0-17.43.35-34.86-.65-52.3.54-5.88.4-7.58-2.58-4.12-7.74a33.73,33.73,0,0,0,23-13c3.74-4.66,8.9-7.25,14.52-8.85,13.47-3.81,26.27-9.05,38-16.83,7.4-4.91,16.12-6.8,24.23-10.09,2.34-.95,5.78-1.69,7.12,1.64,1.14,2.85,1,6.06-2,8.15C658.6,85.07,656.22,86.4,654,88s-5,2.51-4.31,6.37c4.17,1.09,8.16.53,12.38-.27,5.58-1.05,11.18-3.73,16.9-2.4,16.69,3.9,33.61,3.38,50.52,3.3,2.56,0,5.57,1,7.61-2.58-2.89-.93-5.59-1.95-8.37-2.64-2.95-.73-5-2-5.08-5.4-.1-3.77,2.46-5.27,5.37-6.47,3.49-1.44,7.22-.52,10.8-1,1.34-.27,3.5-.07,2.83-2.19s-2.94-1.24-4.6-1.39h0C745,70.69,745,70.69,747.94,77a2.9,2.9,0,0,0,4.52,1.23c5.44-5.86,11.4-2.13,16.82-.82,7.52,1.82,14.74,4.86,22.16,7.4-1.2,1.73-2.85,1-4.25,1.28-10.21-.76-19.19-7.51-31.76-7,3.72,3.9,5.25,6.58,9.46,7.34,10.57,1.9,21,4.57,31.49,6.93l25.5,9.16c3.1,2.39,6.32,3,9.78.22l-4.37-.29C821.55,97.37,813.73,96.84,807.38,93.16Zm0,302.6,6.37-10.09c-4.95-.07-7.82,1.78-8.35,6.28-10.59,7.76-11.55,7.37-19.08-3.2a22.94,22.94,0,0,1-4.54-15.21c.13-2.68.58-5.51-.85-8-.95-1.66-2.42-2.73-4.48-2.24-1.87.45-2.05,2.08-2,3.57.07,11.66-.53,22.78,6.56,33.86,9.67,15.13,16.33,32.06,5,50.6,4.56,1.11,10.36,2.86,12.62-1,5.66-9.7,14.85-18.42,10.68-31.88C807.07,411.23,803.09,403.72,807.37,395.76Z" transform="translate(-131.41 -56.9)"/><path class="cls-17" d="M798.2,253.6c5.34-.84,7.65.93,7.43,6.83-.42,11.73.56,23.48-4.35,34.75-3.43,7.87.62,15.14,3.67,22.4-.46.4-1.12,1.18-1.28,1.09-9.15-5.2-17.87,0-26.67,1.25-5.92.86-11.65,4.06-17.5,4.17-10.06.19-12.54,6.5-15.63,14.21-4.26,10.62-1.58,21.26-2.19,31.87-13.74,5.17-28,8.5-42.23,12-6.83,1.66-14,4.42-19.63-2.84,1.27-12.71,7.28-24.43,8-37.32-7.86,12.6-10.79,26.74-13.48,41-5.93,2.19-3.58,10.33-9.17,12.77-4.93-4.95-10.36-5.41-16.27-1.85-3.32,2-6.59,2.1-10.33.63-4.65-1.83-8.21-.16-9.82,4.83-1.16.88-2.95,2.76-3.4,2.48-6-3.73-12.06-1.6-18.37-1-9.29.92-14.57-3.67-14.72-10.91,7.47-6.1,15.3-11.77,25.27-12.4,8.66-.55,14.16-4.65,16.43-12.75,3.22-11.48,9-22.14,9.85-34.45.28-4.17.49-9,3.15-13,5.28-2.43,8.37-8.4,14.88-9,4.76-.41,9.64-.77,14.16-2.13,7.34-2.21,16.87-.7,20.17-10.66,2.65-.3,4.31,1.4,5.8,3.12,2.21,2.56,4.42,2,6.78.38,6.76.38,11.28-4.9,17.2-6.88,11.87-4,23.9-7.67,35.13-13.5,4.72-2.45,6.88-5.42,6.14-10.57,4.61,2.3,7,7.14,11.62,9.63,4.14,2.26,6.59,0,9.62-2,3.82-2.48,1.93-5,.51-7.59C792.09,263.37,800,261.52,798.2,253.6Z" transform="translate(-131.41 -56.9)"/><path class="cls-18" d="M679.81,379.28c5.62,7.26,12.8,4.5,19.63,2.84,14.22-3.45,28.49-6.78,42.23-12,5.2,11.31.61,22-2.79,32.43-1.63,5-2.23,8.82.26,13.56,2.65,5,4.15,10.67,6.48,15.9,2.83,6.34,5.87,6.72,10.27,1.62,9-10.48,9.14-10.54,16.91.93,1.56,2.3,5.25,3.44,4.5,7.25-2.77,1.62-3.72-1-5.25-2.12s-2.49-4-5.11-2.47c-2.19,1.26-3.19,3.37-3.35,6.06-.26,4.26,2.15,7.49,3.79,11,3.75,8,4.69,15.54-3.68,21.48-2.57,2.89-5.16,4.19-9.46,2.79-8.45-2.75-18.09-1.82-25.38-8.23-6.33-4-9.78-10.18-12.76-16.77-4.77-10.54-4.86-10.53-13.1-1.9a14,14,0,0,0-1.45,2.23c-11-7.27-15.77-18.74-19.4-30.49C677.69,409.07,675.89,394.25,679.81,379.28Z" transform="translate(-131.41 -56.9)"/><path class="cls-19" d="M721.76,483.14c-3.79,9.66-.8,19.55-2.09,30.38,8.71-4.48,16.15-8.34,23.62-12.15,2.12-1.08,4.38-2.72,6.41.08,1.78,2.45.88,4.68-1.12,6.43-5.91,5.15-11.85,10.28-17.92,15.24-1.87,1.53-4.07,2.6-4.72,5.13.18,1.93,1.75,2.61,3.08,3,9.79,3.12,15.09,9.77,17.81,19.68,2.35,8.57,1.16,11.76-7.82,12.22-7.78.39-15.42,1.16-22.82,3.69-1.16-.29-2.53-.28-3.46-.91C701,558,689.1,550.38,677.81,541.89a35.47,35.47,0,0,1-14.08-24.51c-1.7-14-3.1-28.1-3.78-42.19a28.38,28.38,0,0,0-8.27-19.39c-5.23-5.43-11.28-10.11-15.59-16.41a14.67,14.67,0,0,1,8.81,4.28c3.54,3.31,6.79,7,10.64,9.89,6.36,4.75,10.75,10.53,11.52,18.56.61,6.4,4.37,8.41,10,7.11,3.85-.89,7.75-1.16,11.57-1.89,6.21-1.19,6.25,1.57,4.7,6-1.23,3.5-4.76,6.8-.85,10.71a70.27,70.27,0,0,0,.16,8.13c.33,2.58,1.58,4.58,4.85,3.66A16.31,16.31,0,0,0,709,490.4a22.62,22.62,0,0,1,3.76-12.76Z" transform="translate(-131.41 -56.9)"/><path class="cls-18" d="M692.47,494c-3.91-3.91-.38-7.21.85-10.71,1.55-4.41,1.51-7.17-4.7-6-3.82.73-7.72,1-11.57,1.89-5.62,1.31-9.38-.71-10-7.11-.77-8-5.16-13.81-11.52-18.56-3.86-2.88-7.1-6.58-10.64-9.89a14.67,14.67,0,0,0-8.81-4.28c-7.71-4.21-12.58-12.69-21.84-14.58-4.1-1.69-7.55-4.41-11-7.05a58,58,0,0,0-14.9-15c-3.09-2.24-6.55-4.32-6.81-8.8l10.78-4c.16,7.24,5.44,11.82,14.72,10.91,6.3-.62,12.32-2.74,18.37,1,.45.28,2.23-1.6,3.4-2.48.8,4,2.73,8.43,6.51,8.7,6.56.45,12.83,2.93,19.49,2.29,7.81-.74,12.16-6.7,10.41-14.6,5.59-2.44,3.24-10.58,9.17-12.77-1.85,24.31,2.31,47.26,14.2,68.85,4,7.3,10.33,12.35,15.05,18.85.2,4.71-2.28,8.54-4.71,12.1S693.24,489.46,692.47,494Z" transform="translate(-131.41 -56.9)"/><path class="cls-20" d="M940.3,450.3c2.88,1.39,4.07,3.21,2.37,6.47-1.29,2.48-2.85,4.83-5.11,6.2-11.85,7.2-19.7,18-27.53,29.06-2.26,3.19-4.81,8.12-9.62,6.92-5.06-1.27-5.32-6.44-6-11s-2.2-9.26-3.35-13.88c0-2.62,1.88-3.13,3.93-4,11.42-5.08,22.77-10.35,33.23-17.26C932,450.24,936.09,450.19,940.3,450.3Z" transform="translate(-131.41 -56.9)"/><path class="cls-21" d="M692.47,494c.77-4.56,4-7.68,6.42-11.3s4.91-7.39,4.71-12.1l9.16,7A22.62,22.62,0,0,0,709,490.4a16.31,16.31,0,0,1-11.51,15.41c-3.27.92-4.52-1.07-4.85-3.66A70.27,70.27,0,0,1,692.47,494Z" transform="translate(-131.41 -56.9)"/><path class="cls-22" d="M701.54,453.95a14,14,0,0,1,1.45-2.23c8.24-8.63,8.33-8.64,13.1,1.9,3,6.59,6.44,12.75,12.76,16.77-5.4,2.68-8.83-2-12.72-3.88C710.34,463.65,704,460.9,701.54,453.95Z" transform="translate(-131.41 -56.9)"/><path class="cls-16" d="M448.4,934.77c-12.36-4.16-23.31-11.26-34.46-17.67-21.16-12.18-41-26.48-60-41.79-4.76-3.83-10-7.6-12.91-13.41,14.24-6.49,28.42-13.13,42.76-19.4,5.08-2.22,6.81-4.24,3.81-9.94-6.42-12.22-6.08-12.45-18.61-6.42a483.8,483.8,0,0,1-50,21c-3.63-5.28-8.89-9-13-13.85-3.65-4.28-9.27-7-10.53-13.18,4.88,2,6.78,8,13.47,10.36a206.51,206.51,0,0,0-19.51-29.81c-10.94-14.18-20.54-29-26.47-46-2.32-6.63-5.08-13.12-9.1-18.72-10.34-14.42-7.65-29.43-3.24-44.74,2.42-8.4,10.18-14.63,10.1-23.91-.06-6.29,3.56-6,7.74-5.26,7.53,1.39,12.58,6.58,18.16,11.34,10.15,8.66,16.76,20.49,27.79,28.5,12.31,8.94,25.45,17.52,32.47,32.06,4.22,8.74,11.09,15.78,15.59,24.4,2.92,5.6,7.55,9.86,12.86,13.74,12.14,8.87,24.94,17.28,32.14,31.33,1.74,3.4,5.08,4,8.52,4.12-2.83,2.64-6.86,3.78-9,7.24-2.67,6.1-1.19,10.76,5.15,16.26,4.12,8.2,8.16,9.17,14.69,3.52h1.84c6.16,3.72,13,6.43,18.39,11.27,11.57,10.36,26,15.19,40,20.75,13.58,5.4,26.22,12,36,23.31,5.16,6,5.06,7.13-1.23,12.07-7.54,5.93-16.83,9.71-22.33,18.14-3.86,1.75-5,5.83-7.59,8.71-3.73,4.21-7.2,6.93-13.94,4.92-6.42-1.92-13.5-2.22-20.27-3.4C453.74,929.63,449.78,929.83,448.4,934.77Z" transform="translate(-131.41 -56.9)"/><path class="cls-23" d="M313.82,847.13C298.6,829.85,282.9,813,269.92,793.84a49.49,49.49,0,0,1-2.52-4.7l4.5,1.74c8.69,9.06,14.69,20.31,23.57,29.22,1.26,6.19,6.88,8.91,10.53,13.18,4.11,4.82,9.37,8.57,13,13.85C317.27,847.92,315.55,847.54,313.82,847.13Z" transform="translate(-131.41 -56.9)"/><path class="cls-24" d="M448.4,934.77c1.38-4.94,5.34-5.14,9.2-4.47,6.77,1.18,13.85,1.48,20.27,3.4,6.74,2,10.21-.71,13.94-4.92,2.55-2.88,3.73-7,7.59-8.71,11.79-4.3,21.36-11.94,30.26-20.46,2.64-2.52,1.73-5.23-1-7.73-2.38-2.18-5.34-4-6.32-7.41,1.74-3.17,4.69-2.41,7.31-2.47,7.55-.19,15.07,1.38,22.49,1.52,32.65.62,65.37,1.18,97.92-1.87,7.81-.73,15.66-.72,23.4-1.71,21.73-2.79,43.46-5.63,65.1-9,21.35-3.3,42.73-6.67,63.87-11.08,16.47-3.43,32.77-8,48.82-13,11.19-3.52,21.82-6,32.63.42h0c0,3.61-.35,7.25,0,10.81.73,6.71-2.14,13.72,1.68,20.16-2.11,2.75-.56,6.84-3.41,9.31-.23-.18-.44-.46-.71-.53s-.74.05-.77.16c-1.49,7.85-3.68,15.42-8.59,21.94-1,1.39-.8,2.76.76,3.75-.93,2.59-3.86,4.17-3.69,7.31-10.41,8.57-23.05,13.16-35.16,18.16-26.35,10.9-52.81,22.3-80.9,27.67-17.87,3.42-35.72,7.39-54,9.37-11.32,1.23-22.95-.95-34,3-2.37-2.82-5.6-1.53-8.47-1.66-17.07-.8-34.22,1.42-51.28-1.64-4.05-.73-9-1.88-12.93,1.53-14.5-2.39-29-4.85-43.52-7.1-3-.46-5.91-.56-8.87-1.52-26.14-8.46-52.56-16-78.2-26C457.1,940.15,452.25,938.38,448.4,934.77Z" transform="translate(-131.41 -56.9)"/><path class="cls-25" d="M1035,756.3c-1.5-24.15,5.64-46.57,14.41-68.49,8.23-20.56,14.54-41.8,17.72-63.46a233.71,233.71,0,0,0,2.52-43.34c-.09-2.14,0-4.28-2.62-6-4.18,3.26-5.65,7.94-6.67,12.89-1.66,8-4,15.85-8.59,22.74-1.29,1.93-3.19,4.36-5.93,3.08-3.37-1.57-.94-4-.27-6.17a90.35,90.35,0,0,1,5.48-14.39c5.84-11.47,8.36-23.87,9.13-36.56a78.45,78.45,0,0,1,2.76-16.93c5.95-20.55,2.9-40.63-1.11-60.89-1.47-7.43-6.21-9.73-12.78-10.07-4-.21-6.24-1.9-3.63-5.61,4.9-7,5.74-15.15,7.77-22.95,1.76-6.76,4.71-13,7-19.54,2.39-6.74,8.76-5.53,13.4-7.57s5.1,3.2,6.9,5.46c4.67,5.88,8.67,12.3,14.38,17.31-.16,9.15,3.2,17.75,4.3,26.74a100.39,100.39,0,0,1,1.2,15.3c-.43,13.94,2,27.73,2.08,41.63.17,35.12-4.47,69.68-11.95,104-7.71,35.34-19.41,69.15-36.8,100.95-5.78,10.56-9.57,22.18-16.79,32Z" transform="translate(-131.41 -56.9)"/><path class="cls-26" d="M592.45,976.62c3.94-3.41,8.87-2.25,12.93-1.53,17.07,3.06,34.21.84,51.28,1.64,2.87.13,6.1-1.16,8.47,1.66C640.88,978.84,616.64,978.72,592.45,976.62Z" transform="translate(-131.41 -56.9)"/><path class="cls-27" d="M1035,756.3l1.92.11c-5.63,12.39-13.66,23.3-21.31,34.43-1.17,1.7-2.84,2.26-4.31.06Z" transform="translate(-131.41 -56.9)"/><path class="cls-28" d="M1000.36,807.31a5.76,5.76,0,0,1,3.61-5.58C1007.56,806.68,1003.09,806.44,1000.36,807.31Z" transform="translate(-131.41 -56.9)"/><path class="cls-29" d="M317.38,200.85c5.21-8.48,14-13.31,21-19.77A388,388,0,0,1,375.64,151c11-7.78,21.83-16.12,34.54-21.25,3.77-.32,7.34,1,10.39,2.66,13.68,7.39,27.14,15.22,40.67,22.89-6.85,6.37-9.54,16.5-17.36,21.54C431,185.1,418.57,194.26,404.19,200a49.44,49.44,0,0,0-11.71,6.53c-10.07,7.56-18.5,17.19-29.6,23.42-3.5-.16-5.08,2.84-7.48,4.51-7.42,5.17-11.5,5.35-18.78.5-5-3.31-9.88-6.74-14.56-10.45-10.62-8.42-10.54-8.5-5.2-21A12.59,12.59,0,0,0,317.38,200.85Z" transform="translate(-131.41 -56.9)"/><path class="cls-30" d="M739.83,76.89c-3.59.5-7.31-.43-10.8,1-2.91,1.2-5.47,2.7-5.37,6.47.09,3.37,2.14,4.67,5.08,5.4,2.79.69,5.49,1.72,8.37,2.64-2,3.54-5.05,2.57-7.61,2.58-16.91.07-33.83.6-50.52-3.3-5.71-1.34-11.31,1.35-16.9,2.4-4.22.79-8.21,1.36-12.38.27C649,90.5,651.95,89.49,654,88s4.58-2.93,6.82-4.47c3-2.1,3.15-5.31,2-8.15-1.34-3.33-4.78-2.59-7.12-1.64C647.62,77,638.9,78.9,631.5,83.81c-11.72,7.78-24.52,13-38,16.83-5.63,1.59-10.78,4.19-14.52,8.85a33.73,33.73,0,0,1-23,13c-.69-.55-1.32-1.47-2.08-1.59-20.69-3.38-41.12-7.72-60.52-16-3.5-1.49-8.54-1.39-9.49-5.73s4.74-4.77,6.49-7.8c4.1.58,7-2.34,10.42-3.69A248.42,248.42,0,0,1,553,73.18c35.19-5.58,70.4-10.94,106.2-9a477.9,477.9,0,0,1,56.53,6.07c7.4,1.3,14.9,2,22.35,3h0Z" transform="translate(-131.41 -56.9)"/><path class="cls-31" d="M490.37,91.37c-1.75,3-7.42,3.56-6.49,7.8s6,4.23,9.49,5.73c19.4,8.29,39.83,12.63,60.52,16,.76.12,1.39,1,2.08,1.59-3.46,5.16-1.76,8.14,4.12,7.74,17.43-1.19,34.87-.19,52.3-.54a16.13,16.13,0,0,0,16.44,0c10.79-.84,21.19.57,31,5.32,2.15,5.48,1,8.55-5.35,10.28a251.08,251.08,0,0,1-42.3,8c-15.81,1.5-31.63,3.28-47.56.24-5.16-1-10.66-.16-16-.17.23-4.42,8.34-9.63-1-13.09-10.34-3.83-19.4-9.21-26-18.35-1.66-2.31-3.81-3.64-6.85-1.19-5.68,4.57-12.63,6.71-19.33,9.27-10.24,3.92-10.23,3.92-10.6-6.75,0-.45-.63-.89-1-1.37-6.3.49-8.9,3.52-10.22,10.13-1.73,8.62-4.19,17.67-12.4,23.19-13.54-7.67-27-15.49-40.67-22.89-3-1.65-6.62-3-10.39-2.66,5.13-6.28,12.48-9.6,19.36-12.94,17.37-8.42,35.24-15.82,53-23.52C485,92.19,487.54,91.13,490.37,91.37Z" transform="translate(-131.41 -56.9)"/><path class="cls-17" d="M317.38,200.85a12.59,12.59,0,0,1-.52,2.64c-5.34,12.49-5.42,12.57,5.2,21,4.68,3.71,9.59,7.14,14.56,10.45,7.28,4.85,11.36,4.66,18.78-.5,2.4-1.67,4-4.67,7.48-4.51-2.1,3.42-5.1,5.75-8.47,7.9-22.5,14.3-46.79,26-66.12,44.94-3.16,2.48-8.18,3.47-7.31,9.16h0c-10.2.2-16.26-9.26-25.62-11C267.47,258.23,283.5,238.4,300.1,219c1-1.13,1.76-2.42,2.64-3.63C309.11,212,310.94,204.12,317.38,200.85Z" transform="translate(-131.41 -56.9)"/><path class="cls-32" d="M796.37,93.33c-10.49-2.36-20.92-5-31.49-6.93-4.21-.76-5.74-3.44-9.46-7.34,12.57-.48,21.55,6.27,31.76,7,4.39,3.09,9.63,3.92,14.6,5.45C800.55,93.87,798.33,93.19,796.37,93.33Z" transform="translate(-131.41 -56.9)"/><path class="cls-33" d="M796.37,93.33c2-.14,4.19.54,5.42-1.79l5.59,1.62c6.35,3.68,14.17,4.21,19.89,9.26l-5.4.07Z" transform="translate(-131.41 -56.9)"/><path class="cls-18" d="M255.39,280.91c9.37,1.75,15.42,11.21,25.62,11-1.33,6.3-7.31,9.3-10.29,14.61-6.95,12.34-13.5,24.9-21.56,36.67-13.78,20.09-24.15,41.68-22.91,67-3-2.64-1.91-6.23-1.67-9.3.88-11.58-3-19.87-14.69-23.48,2.74-11.81,8.78-22.57,11.05-34.53,1.38-.87,1.62-2.26,1.71-3.72,2.88-2.36,3.79-5.52,3.66-9.09.14-1.45.28-2.9,1.77-3.71,6.69-6.89,9.22-16.19,14.06-24.14C246.47,295.1,249.21,286.93,255.39,280.91Z" transform="translate(-131.41 -56.9)"/><path class="cls-34" d="M295.47,820.1c-8.89-8.91-14.88-20.15-23.57-29.22C266.47,779.75,259,770,251.71,760.06c-10.15-17.5-20.76-34.73-27.9-53.81-1.56-4.17-3.11-8.53-6.29-11.94-.06-4.06-2.21-7.38-3.9-10.87L201,643.29c-.34-2.9.88-6.58-3.69-7.36-.19-13.2-4.13-25.69-7.23-38.33l-3.8-30.72c-.28-16-2.06-32-1.86-48.09.36-30.31,2.41-60.39,9.13-90a23.27,23.27,0,0,0,.26-3.62c3.56-7.65,3.83-16.26,7-24q.91,0,1.81-.05c-.25,1.77-.36,3.58-.78,5.32-8,32.39-14.51,65-13.75,98.58-1.74,1.18-1.84,3-1.81,4.82.22,11.11.89,22.21,1.38,33.28a461.71,461.71,0,0,0,6.19,55.33c1.66,10,.32,23.51,17.08,22.84,1.06,0,2.17,1,3.24,1.53L237,634.38l.21-3.88c3.75,5.57,4.7,12.23,6.92,18.37a13.2,13.2,0,0,0,7.68,8.19c2,.87,4.14,1.51,6,0,2.17-1.82.6-3.85-.25-5.7-2.6-5.67-6.6-10.72-7.48-17.14,4-9.5,4-9.23,14.14-5.75,12.3,4.2,23.67,10.32,35.27,16,4,1.95,8,4.66,12.4.79,2.27,1.21,4.6,2.2,7.27,1.74-.51,2.1-3.36,1.2-4,3.11,3.11,1.91,6.22-1,9.66.49,11.08,4.75,22.78,7.74,34.3,11.26,35.39,10.82,71.72,17.17,108.07,23.52,17.74,3.1,35.67,4.48,53.48,6.95,11.63,1.61,22.68-.37,31.37-9.43a14.84,14.84,0,0,1,9.44-4.89,5.65,5.65,0,0,1-3.06,5.5c-2.77-1.37-3.32-1.07-6.25,3.39-17.5,15.23-32.21,33.39-50.4,47.93-2.48,2-6.6,3.53-5.83,8.57h7.17c-1.8,3-4.68,1.93-7.25,1.84-6.21-.22-14.55,8.32-14.64,15-4.62-.33-7.16,2.9-9.47,6a74.86,74.86,0,0,1-33.18,25.09c-9.12,3.57-14.34,11.77-22.52,16.17-3.43-.15-6.78-.72-8.52-4.12-7.2-14.06-20-22.46-32.14-31.33-5.31-3.88-9.94-8.14-12.86-13.74-4.5-8.62-11.37-15.67-15.59-24.4-7-14.54-20.15-23.12-32.47-32.06-11-8-17.64-19.84-27.79-28.5C281,668.6,276,663.41,268.46,662c-4.18-.77-7.8-1-7.74,5.26.08,9.29-7.68,15.51-10.1,23.91-4.41,15.32-7.1,30.32,3.24,44.74,4,5.6,6.78,12.1,9.1,18.72,5.94,17,15.54,31.81,26.47,46a206.51,206.51,0,0,1,19.51,29.81C302.25,828.1,300.35,822.14,295.47,820.1Z" transform="translate(-131.41 -56.9)"/><path class="cls-35" d="M251.71,760.06c7.25,9.93,14.76,19.69,20.19,30.81l-4.5-1.74c-7.53-7.33-12.6-16.36-17.49-25.5C251.49,762.95,251.68,761.54,251.71,760.06Z" transform="translate(-131.41 -56.9)"/><path class="cls-8" d="M202.56,401.05q-.9.06-1.81.05a20.91,20.91,0,0,1,3.5-12.84l.36.25Z" transform="translate(-131.41 -56.9)"/><path class="cls-36" d="M202.56,401.05l2.05-12.54c3-3.09,2-8.09,5.26-11.06,11.65,3.61,15.57,11.91,14.69,23.48-.23,3.07-1.37,6.67,1.67,9.3-1.06,3.46-2.19,6.9-3.18,10.38-4.09,14.5-8.72,29-9.4,44.11-.65,14.53-.07,29.12,0,43.68.5,3.72-1.7,7.86,1.74,11.12h0v11c.08-8.34-5.49-12.19-11.51-15.81-5.31-3.2-10.55-6.52-15.83-9.78-.77-33.61,5.79-66.19,13.75-98.58C202.21,404.64,202.31,402.83,202.56,401.05Z" transform="translate(-131.41 -56.9)"/><path class="cls-4" d="M226.29,330.1c.13,3.57-.78,6.73-3.66,9.09C222.49,335.62,223.39,332.46,226.29,330.1Z" transform="translate(-131.41 -56.9)"/><path class="cls-37" d="M883.88,847.29c-10.81-6.45-21.44-3.94-32.63-.42-16.05,5.06-32.35,9.58-48.82,13-21.14,4.4-42.52,7.78-63.87,11.08-21.65,3.34-43.37,6.18-65.1,9-7.75,1-15.59,1-23.4,1.71-32.55,3-65.27,2.49-97.92,1.87-7.42-.14-14.93-1.71-22.49-1.52-2.62.06-5.57-.69-7.31,2.47,1,3.37,3.94,5.23,6.32,7.41,2.73,2.51,3.64,5.21,1,7.73-8.9,8.52-18.47,16.16-30.26,20.46,5.5-8.43,14.8-12.21,22.33-18.14,6.29-4.94,6.4-6.09,1.23-12.07-9.76-11.3-22.4-17.91-36-23.31-14-5.56-28.38-10.39-40-20.75-5.4-4.84-12.23-7.55-18.39-11.27q7.21-3.61,14.42-7.22c7-3.55,14.53-5.57,22.18-7.5,14.54-3.65,29.74-6,42-15.81,2.64-2.13,5.51-2.34,8.54-2.15,18.16,1.1,36.17-1.88,54.3-2.22,11.53-.22,23.22-2.33,34.78-4.51,21.45-4,41.84-11.18,62.16-18.72l.09-.05c1.4,14.52,4.8,27.71,16.82,38,12.36,10.59,25.78,18.3,41.49,22.17,5.14,3.59,10.94.91,16.37,1.72h0c4.83,2.85,9.68,2.75,14.55.07,3.82-3,8.73-2.66,13-3.26a40.76,40.76,0,0,0,17.52-6.91c18.25-12.49,39.07-16.44,60.32-19,5.28-.63,10.34-3.23,16-1.38,4.77,1.56,8.19,4.21,5.68,8.95-7.39,13.94-.41,21.25,11.25,26.88A7.57,7.57,0,0,1,883.88,847.29Z" transform="translate(-131.41 -56.9)"/><path d="M771,581.69c4.77-1.32,10.49.94,14.33-3.82,18.29-5.26,34.82-14.4,51.4-23.41,19-6.32,38.61-3.86,57.89-3.28a160.87,160.87,0,0,0,46.39-5.31,123,123,0,0,1,28.52-3.54c2.35-.06,4.15.52,5.22,2.71l-.4.41.21.53-3.46,2.46a13.37,13.37,0,0,0-2.59.75C948.8,559.5,929.1,570,911,583c-7.82,5.61-16.65,10.14-23.07,17.53-7,8.09-15.46,14.36-24.19,20.35-6.49,4.45-13.31,8.7-18,15.08-3.11,4.27-6.42,4.68-10.77,3.48-1.3-1.66-2.72-3.24-3.89-5-13.19-19.73-30.51-34.36-52.53-43.53-3.2-1.33-7.51-.07-9.69-3.86C769.27,585.16,769.57,583.19,771,581.69Z" transform="translate(-131.41 -56.9)"/><path class="cls-38" d="M712.33,568.93,721.8,574c7.32,4.58,15.41,4.39,23.56,3.83h0c.89,2.57,4.26,1.22,5.39,3.41-5.21,0-10,2-15,3.11a26.6,26.6,0,0,1-8.89.38c-10.09-1-18-4.54-26.19-11.56-11-9.42-22.74-18.51-35.51-25.94-13.76-8-22.82-19.54-25.51-35.88-2.23-13.59-6.61-26.78-5.77-40.88.39-6.62-.82-13.33-1.3-20a4.24,4.24,0,0,1,5.1-1.6,6.65,6.65,0,0,0,3.92,3.23c4.21,5.06,5.83,10.86,6.13,17.45.77,16.8,1,33.72,5.64,50.07,2.06,7.22,4.58,14.32,11.69,18.41A214.58,214.58,0,0,0,712.33,568.93Z" transform="translate(-131.41 -56.9)"/><path class="cls-39" d="M976.69,545c8.3,3.21,9.7,8.22,3.92,13.69-10.06,9.53-23.35,13.59-34.94,20.53C931.93,587.44,918.25,595.8,906,606c-13.2,11-25.93,22.67-40.22,32.26-7.77,5.21-12.8,12.71-19,19.25-13,13.62-28.07,24.78-43.18,35.78-21.46,15.63-41,33.72-63.7,47.76-23.07,14.3-46.72,27.3-72.83,35.27l-.09.05,1.91-3.7c3.39.31,5.15-2.91,8.12-3.68,15.11-3.95,28.29-12.22,41.74-19.65,11.87-6.55,23.62-13.47,34.41-21.79,26.5-20.43,53.22-40.6,79.23-61.64,7.78-6.29,16.29-12.64,20.43-22.55a6.21,6.21,0,0,1,3.64-3.64c4.65-.41,6.82-3.92,9.13-7.27l10.9-7.33c5.47-.84,8-5.16,10.92-9.09l1.84-1.82c6.85-2,10.34-7.79,14.58-12.74h0c3.7-.12,5.68-2.54,7.29-5.46h0a18.49,18.49,0,0,0,10.93-7.29l29.13-18.24c5.69-1,10.34-4.36,15.36-6.83C978.36,557.88,978.56,557.37,976.69,545Z" transform="translate(-131.41 -56.9)"/><path class="cls-40" d="M836.78,554.46c-16.59,9-33.11,18.15-51.4,23.41-5.05-.18-9.9,2.91-16,.61,4-8.76,6.13-17.92,13.87-25.14,11.46-10.69,22.77-17,37.68-7C825.9,549.64,833.56,547.73,836.78,554.46Z" transform="translate(-131.41 -56.9)"/><path class="cls-41" d="M944.11,527.92c-.12-4.93-.31-8.79,0-12.65.16-2.3,1.11-4.1,3.53-4.69,2-.5,3.44.6,4.82,1.87,4.85,4.46,8,19.49,5.49,25.73-.62,1.51-1.51,2.69-3.16,2.88-17.64,2.06-34.46,9.83-52.71,7.68a18.52,18.52,0,0,1-2.45-.63c4.82-7.79,4.8-7.75-3.68-11.69a58.39,58.39,0,0,1-7.19-3.87c-2.62-1.7-3.68-4-1.58-6.9s4.32-5.38,8.15-2.62c4.65,3.35,9.86,5.9,13.87,10.16,3.26,3.46,6.66,4.56,11,1.08,3.5-2.82,7.83-4.6,11.47-7.27C935.87,523.86,939.72,522.1,944.11,527.92Z" transform="translate(-131.41 -56.9)"/><path class="cls-25" d="M1030,610.17c-7.3,1-11.94-1.11-16.21-5.14A347.55,347.55,0,0,0,979,576.22a39.3,39.3,0,0,1-3.62-2.69c-1.35-1.24-2.65-2.71-2-4.73,1-2.77,3.56-2.26,5.41-1.85,6.28,1.39,12,4.57,17.2,8a307,307,0,0,0,35.41,20.17,21.29,21.29,0,0,1,4.61,2.85,9.83,9.83,0,0,1,3,9.93C1037.44,612.68,1032.14,609.56,1030,610.17Z" transform="translate(-131.41 -56.9)"/><path class="cls-42" d="M641.61,452.1a6.65,6.65,0,0,1-3.92-3.23c-5.5-8.58-13.79-14.17-21.66-20.2l-1.78-3.86c9.27,1.89,14.13,10.37,21.84,14.58,4.31,6.31,10.36,11,15.59,16.41a28.38,28.38,0,0,1,8.27,19.39c.68,14.09,2.09,28.18,3.78,42.19a35.47,35.47,0,0,0,14.08,24.51C689.1,550.38,701,558,712.73,566c.93.63,2.3.62,3.46.91-.74,1.7-2.51,1.51-3.86,2.07A214.58,214.58,0,0,1,665.08,538c-1.12-5-4.51-9-5.64-14.23-3.4-15.71-4.58-31.56-5.26-47.56C653.77,466.53,650.7,457.6,641.61,452.1Z" transform="translate(-131.41 -56.9)"/><path class="cls-43" d="M878.58,548c-8.46,1.29-15.06-1-21.66.53-2.64.61-4.7-.87-5.82-3.31-3.53-7.65-10.58-10.19-17.83-12.53-4.54-1.47-9.47-2.18-12.79-6.21-1.17-1.42-2.42-2.83-1.13-4.79a3.91,3.91,0,0,1,4.71-1.75,46.45,46.45,0,0,1,8.43,3.18,100.93,100.93,0,0,0,21.79,8.75C863.7,534.49,869.94,541.3,878.58,548Z" transform="translate(-131.41 -56.9)"/><path class="cls-44" d="M1034.94,496.08c-5.3-.76-10.63-1.38-15.9-2.33-3.19-.57-4.25-3-4.13-6.06.1-2.6-.6-5.38,3.07-6.57,6-1.94,11.82-4.28,17.72-6.44,1.47-.54,3.21-.87,4.26.3,4.19,4.68,2.93,10.58,2.82,16C1042.68,495.68,1039.08,496.65,1034.94,496.08Z" transform="translate(-131.41 -56.9)"/><path class="cls-45" d="M976.69,545c1.87,12.39,1.67,12.9-10.14,18.7-5,2.47-9.67,5.84-15.36,6.83,1.84-4,6-5,9.42-6.38,8.4-3.36,15.31-7.46,14-18.14l-.21-.53.4-.41Z" transform="translate(-131.41 -56.9)"/><path class="cls-32" d="M872.82,912.91c-1.56-1-1.8-2.36-.76-3.75,4.92-6.52,7.1-14.09,8.59-21.94,0-.11.53-.23.77-.16s.47.34.71.53C883.92,897.82,879.58,905.81,872.82,912.91Z" transform="translate(-131.41 -56.9)"/><path class="cls-46" d="M885.55,878.27c-3.81-6.44-.94-13.45-1.68-20.16-.39-3.56,0-7.21,0-10.81,4,6.09,1.07,12.83,1.76,19.24C886,870.4,885.59,874.36,885.55,878.27Z" transform="translate(-131.41 -56.9)"/><path class="cls-47" d="M745.36,577.83c-8.15.56-16.24.75-23.56-3.83C729.7,575,737.73,575.19,745.36,577.83Z" transform="translate(-131.41 -56.9)"/><path class="cls-48" d="M771,581.69c-1.48,1.49-1.77,3.46-2.16,5.4-2.79-5.62-9.34-2.08-13.08-5.37,2.56-.67,5.63.74,7.7-1.89Z" transform="translate(-131.41 -56.9)"/><path class="cls-47" d="M763.51,579.82c-2.08,2.63-5.14,1.22-7.7,1.89l-5.05-.48c-1.13-2.19-4.5-.84-5.39-3.41C751.66,576.25,757.41,579.66,763.51,579.82Z" transform="translate(-131.41 -56.9)"/><path class="cls-24" d="M741.75,838.25c-5.43-.82-11.23,1.87-16.37-1.72C730.82,837.32,736.61,834.7,741.75,838.25Z" transform="translate(-131.41 -56.9)"/><path class="cls-24" d="M756.28,838.32c-4.86,2.68-9.71,2.78-14.55-.07Z" transform="translate(-131.41 -56.9)"/><path class="cls-29" d="M696.19,295.59c-3.3,10-12.83,8.45-20.17,10.66-4.53,1.36-9.41,1.72-14.16,2.13-6.51.56-9.59,6.53-14.88,9,0-7.28,0-14.55-.11-21.83-.25-18.2-3-21.33-20.6-23.77-7.6-1.05-14.73-3.43-20.06-9.08-8.67-9.2-19.56-13.76-31.58-16.19a52,52,0,0,1-16.75-6.68c-5.18-3.14-9.36-.82-9.06,5.32.16,3.25,1.45,6.45,2.35,9.64.55,2,2.18,4.16-.6,5.48-2.27,1.08-4.06-.49-5.52-2.11-5.93-6.57-7-20.43-1.19-27.57,3.61-4.47,1.9-6.8-1.43-9.66s-6.18-2.17-8.15,1.43c-1.43,2.61-3.73,4-6.1,5.23-5.21,2.77-5.93,6.95-4.68,12.24,1.38,5.85,2.06,11.88,3.5,17.71,1.74,7,2.17,14.36,5.07,21.07,1.73,4,5.27,6.58,9.35,5.5,4.72-1.25,3.67-5.49,2.47-9.1-.49-1.47-.93-2.89,1.13-5.12,4.05,4.72,10.11,5.42,15.82,6.85,4.31,1.08,6.16,3.32,5.89,7.66-.36,5.77.75,11.34,1.8,17a28.73,28.73,0,0,1-2.77,18.5c-5.26,10.48-9.26,21.59-14.6,32-3.48,6.82-4.21,15.35-11.48,20-2,0-4.09.48-5.63-1.37,1.33-.42,3.92-.65,2.89-2.33-1.7-2.75-4.43-5-7.93-1.82-2.65-.16-5.59,1.09-7.7-1.63,1.57,0,4,1,4.34-1,.44-2.74-3.32-2.57-4.44-4.49a19.22,19.22,0,0,0,4.17-11.56c.07-4.37,1.5-8.86,3-13,2.63-7.15,3.49-14.43,4.07-22,1.56-20.16-7.54-38-11.21-57-3.22-4.61-9.3.47-12.63-3.73,5-9.59,7.87-20.27,14.32-29.19,1-1.34,2.13-3,1.09-5-2.84-5.6-17.08-6.59-20.86-1.36-2.82,3.9-5.34,8-8.39,11.74-1.88,2.27-4.95,2.94-7.25.75-1.91-1.82-.06-3.82,1.11-5.58,7.19-10.74,15.07-21.13,20.44-32.91a27.44,27.44,0,0,1,15.89-15c14.32,3.67,29.08,4.56,43.67,5.2,21.05.92,42.13.58,63.12-3.16,17.74-3.16,35.87-4.22,51.25-15.13.69-.49,1.8-1.14,2.41-.91,6.53,2.51,11.65-1.34,17-3.71a20.29,20.29,0,0,1,15.72-.58c5.71,2.26,10.28,6.16,14.49,10.44,4.93,5,4.43,7.73-1.63,11.07-7.92,4.36-8.35,10.25-.69,15.3,12.11,8,24.29,15.87,36.76,23.27,6.35,3.77,11.32,8.19,12.3,15.71,1,7.88,4.43,13.57,12.39,15.9,2.74.8,4.28,3.22,6.36,4.91,1.77,7.91-6.1,9.76-9.2,14.62-9.17-1.75-17-5.45-22.45-13.63-3.67-5.46-8.43-10.21-12.81-15.18-1.74-2-4-3-6.39-1.13-2.78,2.16-1,4,.44,6.15,5.68,8.58,13,15.78,19.46,23.72.74,5.15-1.42,8.12-6.14,10.57-11.23,5.83-23.26,9.53-35.13,13.5-5.92,2-10.44,7.26-17.2,6.88,3.83-7.92.9-14.58-3.52-21.25-3.1-4.67-7.63-5.76-11.9-2C685.53,282.58,686.37,288.43,696.19,295.59Z" transform="translate(-131.41 -56.9)"/><path class="cls-49" d="M718.23,157a20.29,20.29,0,0,0-15.72.58c-5.39,2.38-10.51,6.23-17,3.71-.6-.23-1.71.42-2.41.91-15.37,10.91-33.51,12-51.25,15.13-21,3.74-42.07,4.08-63.12,3.16-14.59-.64-29.35-1.53-43.67-5.2,7.68-7.49,18.08-12,23.6-21.88,5.35,0,10.85-.82,16,.17,15.93,3,31.75,1.26,47.56-.24a251.08,251.08,0,0,0,42.3-8c6.33-1.72,7.5-4.8,5.35-10.28,11.87,1.35,13.14,2.52,14.7,13.29.53,3.7,1.87,6.86,5.46,8.8,5.28,2.85,7.76,1.83,8.89-3.93,2.39-12.19,5.63-13.59,16-6.6C709.53,149.75,715,151.95,718.23,157Z" transform="translate(-131.41 -56.9)"/><path class="cls-50" d="M807.37,395.76c-4.28,8-.3,15.46,1.94,22.69,4.17,13.46-5,22.18-10.68,31.88-2.25,3.86-8.06,2.1-12.62,1,11.28-18.54,4.62-35.47-5-50.6-7.09-11.09-6.49-22.2-6.56-33.86,0-1.5.17-3.13,2-3.57,2.06-.49,3.53.58,4.48,2.24,1.43,2.5,1,5.34.85,8a22.94,22.94,0,0,0,4.54,15.21c7.53,10.56,8.49,11,19.08,3.2C807.07,392.69,807.27,394.2,807.37,395.76Z" transform="translate(-131.41 -56.9)"/><path class="cls-49" d="M628.82,129.72a16.13,16.13,0,0,1-16.44,0C617.87,126.66,623.35,127.42,628.82,129.72Z" transform="translate(-131.41 -56.9)"/><path class="cls-51" d="M807.37,395.76c-.1-1.56-.29-3.07-2-3.81.53-4.5,3.4-6.35,8.35-6.28Z" transform="translate(-131.41 -56.9)"/><path class="cls-3" d="M821.87,102.49l5.4-.07,4.37.29C828.19,105.45,825,104.88,821.87,102.49Z" transform="translate(-131.41 -56.9)"/><path class="cls-3" d="M739.83,76.89l-1.77-3.58c1.66.14,3.95-.68,4.6,1.39S741.16,76.62,739.83,76.89Z" transform="translate(-131.41 -56.9)"/><path class="cls-52" d="M539.7,371.94c7.27-4.67,8-13.2,11.48-20,5.33-10.44,9.33-21.55,14.6-32a28.73,28.73,0,0,0,2.77-18.5c-1-5.68-2.15-11.25-1.8-17,.27-4.34-1.58-6.58-5.89-7.66-5.71-1.43-11.77-2.13-15.82-6.85-2.06,2.23-1.61,3.65-1.13,5.12,1.2,3.61,2.24,7.84-2.47,9.1-4.08,1.08-7.61-1.49-9.35-5.5-2.9-6.71-3.33-14.05-5.07-21.07-1.44-5.83-2.12-11.86-3.5-17.71-1.25-5.3-.54-9.47,4.68-12.24,2.37-1.26,4.67-2.61,6.1-5.23,2-3.6,4.75-4.36,8.15-1.43s5,5.19,1.43,9.66c-5.77,7.14-4.74,21,1.19,27.57,1.46,1.62,3.26,3.18,5.52,2.11,2.78-1.32,1.15-3.52.6-5.48-.89-3.19-2.19-6.39-2.35-9.64-.3-6.14,3.87-8.46,9.06-5.32a52,52,0,0,0,16.75,6.68c12,2.44,22.91,7,31.58,16.19,5.32,5.65,12.46,8,20.06,9.08,17.63,2.44,20.35,5.57,20.6,23.77.1,7.28.07,14.55.11,21.83-2.66,3.91-2.87,8.78-3.15,13-.84,12.31-6.63,23-9.85,34.45-2.27,8.1-7.78,12.2-16.43,12.75-10,.63-17.81,6.3-25.27,12.4l-10.78,4c-3.17.85-3.13,2.94-2.08,5.41h-1.91c-2.45-1-3.94-3-5.33-5.05,2.72-4.24-3-3.49-3.46-5.89-3.35-2.44-6.68-4.89-10-7.31-2-1.46-2.47-.16-2.61,1.58-1.8-.46-2.86-1.8-3.84-3.23.46-4.68-2.79-6.72-9-5.67Z" transform="translate(-131.41 -56.9)"/><path class="cls-53" d="M665.17,395.69c1.76,7.91-2.6,13.86-10.41,14.6-6.67.64-12.94-1.84-19.49-2.29-3.79-.26-5.72-4.71-6.51-8.7,1.61-5,5.17-6.67,9.82-4.83,3.74,1.47,7,1.37,10.33-.63C654.81,390.28,660.24,390.74,665.17,395.69Z" transform="translate(-131.41 -56.9)"/><path class="cls-4" d="M767.24,268.15c-6.45-7.93-13.77-15.14-19.46-23.72-1.4-2.12-3.22-4-.44-6.15,2.41-1.87,4.66-.84,6.39,1.13,4.37,5,9.13,9.72,12.81,15.18,5.5,8.18,13.28,11.88,22.45,13.63,1.42,2.63,3.31,5.12-.51,7.59-3,2-5.48,4.23-9.62,2C774.29,275.29,771.85,270.45,767.24,268.15Z" transform="translate(-131.41 -56.9)"/><path class="cls-54" d="M696.19,295.59c-9.82-7.16-10.66-13-2.85-19.8,4.27-3.71,8.8-2.62,11.9,2,4.43,6.67,7.35,13.33,3.52,21.25-2.35,1.62-4.56,2.19-6.78-.38C700.5,297,698.84,295.3,696.19,295.59Z" transform="translate(-131.41 -56.9)"/><path class="cls-55" d="M577.49,399.32h1.91c7.44,6.78,14.15,14.5,23.8,18.43,3.49,2.64,6.94,5.36,11,7.05l1.78,3.86a10.63,10.63,0,0,1,0,1.6c-4.55-2.88-9.19-5.64-13.64-8.67C593.15,415.26,582.54,410.39,577.49,399.32Z" transform="translate(-131.41 -56.9)"/><path class="cls-42" d="M603.2,417.76c-9.64-3.93-16.36-11.65-23.8-18.43-1-2.47-1.09-4.56,2.08-5.41.26,4.48,3.72,6.56,6.81,8.8A58,58,0,0,1,603.2,417.76Z" transform="translate(-131.41 -56.9)"/><path class="cls-56" d="M416,807.51c8.18-4.4,13.4-12.6,22.52-16.17a74.86,74.86,0,0,0,33.18-25.09c2.31-3.09,4.85-6.32,9.47-6,7.5,5.46,15.8,0,23.9,1-.92,4.12-3.82,6.24-5,9.2-2.47,6.12-5.66,12.39-.69,18.85-.39,5.29-5.14,6.39-8.59,8.27-12.3,6.71-26.21,8.25-39.57,11.38A64.53,64.53,0,0,0,423,823.69L420.64,825c-7.49,4.12-9.69,3.11-12.52-5.13a15.78,15.78,0,0,1-1.16-5.13C409.12,811.29,413.16,810.15,416,807.51Z" transform="translate(-131.41 -56.9)"/><path class="cls-57" d="M668.89,772.69l-1.91,3.7c-20.33,7.55-40.72,14.68-62.16,18.72-11.55,2.18-23.24,4.29-34.78,4.51-18.13.34-36.14,3.32-54.3,2.22-3-.18-5.89,0-8.54,2.15-12.21,9.85-27.41,12.16-42,15.81-7.65,1.92-15.14,3.95-22.18,7.5q-7.2,3.63-14.42,7.22H426.8c-.07-1.8-.57-4,1.41-4.89,10.2-4.39,19.22-11.12,30.56-13.35C475.63,813,492.61,809.49,507,799c3.6-2.62,7.89-2.55,12.21-2.68,17.53-.53,35,.31,52.62-1.43,26.3-2.59,51.85-7.47,76.56-16.82,6.74-2.55,13.62-4.76,20.43-7.13Q668.85,771.83,668.89,772.69Z" transform="translate(-131.41 -56.9)"/><path class="cls-58" d="M668.82,771c-6.81,2.37-13.68,4.58-20.43,7.13-24.71,9.34-50.26,14.23-76.56,16.82-17.6,1.73-35.09.89-52.62,1.43-4.31.13-8.6.06-12.21,2.68-14.39,10.48-31.37,14-48.23,17.27-11.34,2.23-20.36,9-30.56,13.35-2,.85-1.48,3.09-1.41,4.89-6.53,5.65-10.57,4.68-14.69-3.52,2.49,1,4,3.81,7.1,3.58,2-.15,5.39.42,5.1-2.2-.69-6.26,4.89-5.2,7.57-7.37,11.88-9.64,26.6-12.83,40.87-15.33,16.26-2.85,29.12-11.87,43.15-18.92h3.58c1.64,6.58,6.91,3.77,10.43,3.35,3.85-.46,7.65-1.3,11.61-1.42,11.74-.34,23.44-.29,35.24-1.41a276.82,276.82,0,0,0,79.39-19.45c4.17-1.71,8.47-3.07,12.72-4.59h0Z" transform="translate(-131.41 -56.9)"/><path class="cls-59" d="M515.91,790.77c-14,7.05-26.9,16.08-43.15,18.92-14.28,2.5-29,5.7-40.87,15.33-2.68,2.17-8.26,1.1-7.57,7.37.29,2.62-3.1,2.05-5.1,2.2-3.07.23-4.61-2.63-7.1-3.58-6.35-5.49-7.82-10.16-5.15-16.26a15.78,15.78,0,0,0,1.16,5.13c2.84,8.24,5,9.26,12.52,5.13l2.35-1.32c2.91.16,5.31-1.34,7.43-2.88,9.24-6.71,19.91-9.27,30.8-11.79,12.14-2.8,24.87-4.31,35.34-12.06a60.05,60.05,0,0,1,13.73-7.69Z" transform="translate(-131.41 -56.9)"/><path class="cls-52" d="M548.62,153.41c-5.52,9.83-15.92,14.39-23.6,21.88a27.44,27.44,0,0,0-15.89,15c-5.37,11.77-13.25,22.17-20.44,32.91-1.18,1.76-3,3.76-1.11,5.58,2.3,2.18,5.37,1.51,7.25-.75,3.06-3.7,5.57-7.84,8.39-11.74,3.78-5.22,18-4.24,20.86,1.36,1,2-.12,3.65-1.09,5-6.46,8.92-9.28,19.6-14.32,29.19C502.88,255.54,497,259,491.35,263c-3.24,2.27-3.63,5.35-.52,8.36,3.26,3.16,4.7-.24,6.47-1.88a17.45,17.45,0,0,0,2.53-3.67c5-8,11.56-12.6,21.47-10.17,3.67,19,12.77,36.88,11.21,57-.59,7.58-1.44,14.85-4.07,22-1.54,4.18-3,8.67-3,13a19.22,19.22,0,0,1-4.17,11.56q-.87,0-1.75,0c-3.51-2.39-6.66-5.54-11.35-5.47-2.86-1.2-5.75-.18-8.63-.11,3.26-3,.82-4.26-1.57-5.9-8-5.43-17.51-7.45-25.83-12.09,4.67-.26,9.16-3.35,14.08-.57,1.67.94,3.25-.14,4.56-1.82,3.7-4.76,8.5-8.75,11.08-14.25,2-4.28,4.88-8.89,1.1-15-8.95,9.71-19.42,16.22-29.78,22.87-4,2.54-2.42,5.58-1.1,8.69l-18.23-7.21c4.16-.8,4.42-3.58,3.06-6.72-1.08-2.48-.64-6.33-5.07-6.27-6,.09-12,0-18,0-3.69,0-5.24,2.37-5.59,5.75-6.27-.71-12.54-.8-18.83-2-9.75-1.9-16.9,4.13-16.68,14.14.29,13.46,2,26.82,10.32,38.23,1.3,1.78,2.35,4,1.81,5.94-2.25,7.82,2.61,11.67,7.91,15.5,3.57,2.58,5.38,6.23,3,10.21-3.24,5.42-.83,8.62,3.55,11.12,5.25,3,7.26,6.87,5.1,12.8-.45,1.23.39,2.94.63,4.42.28,5.25,2.67,9.3,6,13.41,4,4.94,9.44,9.25,10.1,16.34-2.27-2-4.41-4.13-6.83-5.92-2.71-2-5.66-2.15-5.66,2,0,13.08-4.42,27.94,12.65,34.94.59.24.8,1.43,1.17,2.14-9.75,8-30.33,5.85-36.72-4.1-3.91-6.09-8.68-7.26-14.51-4.18-9.74,5.14-20.37,7.19-31,8.84a39.66,39.66,0,0,0-20.92,9.75c-6.79,6-14.48,8.89-23.73,9.63-5.2.42-12.6-1-15.42,6.69-2.7,7.35-5.74,14.57-8.63,21.85-2.05,1.47-1.24,3.88-1.93,5.79a6.56,6.56,0,0,1-6.22,4.53c-4.14-.3-1.9-4.19-2.44-6.53.16-5.39.38-10.73,1-16.15,1.25-10.32,2.16-20.68-2.43-31.1-5.5-12.48-13-23.82-18.73-36.12-.72-1.56-2.35-2.7-3.56-4-3.44-3.74-6.53-3.69-9.53.65-10.4,15.08-17.91,31-18.17,50-.12,9.2,2.27,15.11,10.54,19.55,4.64,2.5,11,4.51,11.38,11.7-1.86,2.33-3.89,4.55-5.56,7-5.18,7.59-9,14.8-3.69,24.71,4.16,7.7,8,16.52,5.58,25.86-3.13,12.12-1.5,23.74,2.25,35.32.89,6.42,4.89,11.47,7.48,17.14.85,1.85,2.42,3.88.25,5.7-1.82,1.53-4,.88-6,0a13.2,13.2,0,0,1-7.68-8.19c-2.22-6.14-3.17-12.8-6.92-18.37a12.13,12.13,0,0,1-2-7.19c-.81-7.89,2.18-16.06-1.7-23.73a39.11,39.11,0,0,0-1-5.27,376.64,376.64,0,0,1-12.5-47.79c-1.67-9-1.36-18.35-4.77-27h0c-.59-3.7,1.31-7.8-1.74-11.12,0-14.56-.61-29.15,0-43.68.68-15.13,5.31-29.61,9.4-44.11,1-3.48,2.11-6.92,3.18-10.38-1.23-25.37,9.13-47,22.91-67,8.07-11.76,14.62-24.32,21.56-36.67,3-5.31,9-8.3,10.29-14.61h0c3.17-2.47,6.75-4.61,7.31-9.16,19.33-19,43.62-30.64,66.12-44.94,3.37-2.15,6.38-4.48,8.47-7.9,11.1-6.23,19.53-15.86,29.6-23.42A49.44,49.44,0,0,1,404.19,200c14.38-5.71,26.84-14.87,39.7-23.16,7.81-5,10.5-15.17,17.36-21.54,8.21-5.53,10.68-14.58,12.4-23.19,1.32-6.61,3.92-9.64,10.22-10.13.36.48,1,.91,1,1.37.38,10.67.36,10.66,10.6,6.75,6.7-2.56,13.65-4.7,19.33-9.27,3-2.44,5.19-1.12,6.85,1.19,6.57,9.14,15.64,14.52,26,18.35C557,143.79,548.85,149,548.62,153.41ZM514.75,274.58c-9.81-.94-22.4,9.67-22.42,17.16,0,2.73.94,4.75,3.86,5.29s5.81-.32,6.74-3.26C505.13,286.81,509.12,280.94,514.75,274.58ZM407.21,389.79c-5.52,2.07-8.21,3.67-6.95,9.56C403.45,397.06,405.12,394.64,407.21,389.79Z" transform="translate(-131.41 -56.9)"/><path class="cls-18" d="M288.28,282.76c-.56,4.55-4.14,6.69-7.31,9.16C280.1,286.23,285.13,285.24,288.28,282.76Z" transform="translate(-131.41 -56.9)"/><path class="cls-60" d="M585.17,660.09,561.43,678a14.84,14.84,0,0,0-9.44,4.89c-8.69,9.06-19.74,11-31.37,9.43-17.81-2.47-35.74-3.85-53.48-6.95-36.36-6.35-72.68-12.7-108.07-23.52-11.52-3.52-23.22-6.51-34.3-11.26-3.44-1.47-6.55,1.41-9.66-.49.69-1.91,3.53-1,4-3.11-2.92-9.06-8.59-16.37-15-23.15-2.92-3.09-6.21-3.2-9.62-.46-3.67,3-1.75,5.84,0,8.7,4,6.67,9.65,11.3,17.36,13.17-4.39,3.87-8.42,1.16-12.4-.79-11.6-5.68-23-11.79-35.27-16-10.19-3.48-10.09-3.75-14.14,5.75-3.75-11.58-5.38-23.21-2.25-35.32,2.42-9.35-1.42-18.17-5.58-25.86-5.35-9.9-1.49-17.12,3.69-24.71,1.68-2.46,3.7-4.68,5.56-7,15.26-3.63.63,9.48,7.22,11,1.08-.29.12-3.24,2.23-3.65a9.58,9.58,0,0,0,1.6,6.91c9.34,13.56,15.58,28.54,20,44.31,1.34,4.81,5.34,7.17,8.3,10.5,1.29,1.45,2.93,2.26,4.72.64s1.14-3,.21-4.8c-7.08-13.94-10.72-29.37-18.56-43,.48-.67,1.51-1.51,1.36-2-1.23-4-.52-10.91,1.67-14a2.62,2.62,0,0,1,.73-.49c.54,2.35-1.71,6.23,2.44,6.53a6.56,6.56,0,0,0,6.22-4.53c.69-1.91-.12-4.33,1.93-5.79,22,11.63,45.65,18.94,68.91,27.25,13.3,4.75,27.21,7.83,40.92,11.4,14.27,3.72,28.49,7.88,43,10.5,19.79,3.58,39.76,6.33,59.74,8.56,10.45,1.17,20.88,3.39,31.52,2.56,5.49-.43,8.33-3.57,7.26-8.86-.65-3.22-2.2-6.25-3.33-9.38-3.6-9.91-7.27-19.79-10.76-29.74-5.05-14.38-13.27-26.9-22.39-38.92-6.57-8.66-16.59-12.68-25.1-18.74,0-2-.37-4.17,1.74-5.53,1.93,2.64,5.23,2.73,7.75,4.17,9.81,5.58,20.26,10.71,23.38,23.13,8.47,12.42,16.65,24.91,21.88,39.24,3.52,9.63,5.4,20.06,12,28.44a6.26,6.26,0,0,0,4.12,5.34,2.38,2.38,0,0,1,.32,1.45c-.69,3.31,1.07,5.53,2.9,8.1,3.35,4.69,8.23,8.5,8.58,14.9,3.37-.91,5.94-1.74,6.27-5.13,1.85-2.4,4.76-2.16,5.72-.23,1.38,2.78-2.41,4.11-3.53,6.33-2.54,1-4.16,3-5.59,5.14-1.87,1.4-1.5,3.66-2.12,5.54-3.06,4.07-1.9,7.33,1,11.22,3.38,4.47,8.18,8,10.06,13.49C577.36,657.9,580.49,659.94,585.17,660.09Z" transform="translate(-131.41 -56.9)"/><path class="cls-61" d="M235.3,623.31a12.13,12.13,0,0,0,2,7.19l-.21,3.88-22.92-11.62c-1.08-.55-2.18-1.57-3.24-1.53-16.75.68-15.42-12.87-17.08-22.84a461.71,461.71,0,0,1-6.19-55.33c-.5-11.07-1.16-22.17-1.38-33.28,0-1.84.07-3.64,1.81-4.82,5.27,3.27,10.51,6.59,15.83,9.78,6,3.62,11.59,7.47,11.51,15.81v-11c3.41,8.66,3.1,18,4.77,27a376.64,376.64,0,0,0,12.5,47.79,39.11,39.11,0,0,1,1,5.27C234.51,607.46,231.49,615.63,235.3,623.31Z" transform="translate(-131.41 -56.9)"/><path class="cls-62" d="M553.92,692.2c-7.51,7.85-11.31,18.06-17,27-6.32,9.92-14.44,17.21-26.07,19.92-3.09.72-5.35,2.48-7.76,4.22h-7.17c-.78-5,3.35-6.59,5.83-8.57,18.19-14.54,32.9-32.69,50.4-47.93C554.5,688,553.55,690.35,553.92,692.2Z" transform="translate(-131.41 -56.9)"/><path class="cls-63" d="M311.88,645.24c-7.7-1.86-13.32-6.49-17.36-13.17-1.73-2.86-3.65-5.75,0-8.7,3.4-2.74,6.7-2.64,9.62.46,6.4,6.79,12.07,14.09,15,23.15C316.48,647.44,314.16,646.45,311.88,645.24Z" transform="translate(-131.41 -56.9)"/><path class="cls-64" d="M553.92,692.2c-.37-1.85.58-4.15-1.81-5.32,2.93-4.46,3.48-4.75,6.25-3.39Z" transform="translate(-131.41 -56.9)"/><path class="cls-61" d="M213.63,508.4c3.05,3.32,1.15,7.41,1.74,11.12C211.93,516.27,214.13,512.12,213.63,508.4Z" transform="translate(-131.41 -56.9)"/><path class="cls-65" d="M817.66,661.16c5.78-4.34,11.73-8.51,16.25-14.25,1.7-2.16,4.33-4.46,1.08-7.46,4.35,1.2,7.66.79,10.77-3.48,4.65-6.38,11.47-10.63,18-15.08,8.73-6,17.17-12.26,24.19-20.35,6.42-7.39,15.25-11.91,23.07-17.53,18.12-13,37.83-23.51,57.6-33.82a13.37,13.37,0,0,1,2.59-.75c-4.74,4.32-6.5,11-12.94,14.21a380.83,380.83,0,0,0-41.16,24.45c-17.35,11.6-31.28,27.37-48.45,39-15.95,10.84-28.18,25.37-41.29,39.07-5.66,2-8.84,7.22-13.43,10.55-30.18,21.91-57.51,47.75-90.1,66.29-17.51,10-35.17,19.91-54.9,25.17h0c.05-2.44-1.15-3.63-3.58-3.61,4-3.11,9.38-2.59,13.63-5.08.85-.5.85-.49-1.36-2.53,2.73-2.45,6.55-1.69,9.58-3.25,1.42,2.19,3.06,1.15,4.67.3,16.8-8.82,33.4-18,49.24-28.47,2.53-1.67,6.47-2.71,6-7.13a5.91,5.91,0,0,1,3.57-3.34c1.24,2,2.83,2.14,4.37.52,3.47-3.66,8-6.37,10.18-11.18,2.83.31,5.37-.19,7.25-2.57,2.22-2.8-.47-2.59-1.93-3.13L789,683.33c5.18,4.22,5.86-2.93,9.1-3.61a65.62,65.62,0,0,0,19.16-14.42C818.38,664.08,820.24,662.82,817.66,661.16Z" transform="translate(-131.41 -56.9)"/><path class="cls-66" d="M827.32,665.22c13.12-13.7,25.35-28.23,41.29-39.07,17.17-11.67,31.11-27.44,48.45-39a380.83,380.83,0,0,1,41.16-24.45c6.44-3.22,8.2-9.9,12.94-14.21l3.46-2.46c1.3,10.68-5.61,14.78-14,18.14-3.46,1.38-7.58,2.36-9.42,6.38l-29.13,18.24c-4.79.71-8.6,2.89-10.93,7.29h0c-3.73.09-5.7,2.52-7.29,5.46h0c-6.87,1.95-10.34,7.78-14.58,12.74L887.43,616c-5.43.88-8,5.22-10.92,9.09l-10.9,7.33c-4.68.37-6.85,3.89-9.13,7.27a6.21,6.21,0,0,0-3.64,3.64c-5.38,3.41-9,8.77-13.76,12.78C835.28,659.33,833.1,664.64,827.32,665.22Z" transform="translate(-131.41 -56.9)"/><path class="cls-67" d="M641.61,452.1c9.09,5.49,12.16,14.43,12.57,24.15.68,16,1.86,31.85,5.26,47.56,1.13,5.2,4.51,9.2,5.64,14.23-7.11-4.09-9.63-11.19-11.69-18.41-4.67-16.35-4.87-33.27-5.64-50.07C647.44,463,645.82,457.16,641.61,452.1Z" transform="translate(-131.41 -56.9)"/><path class="cls-68" d="M632.59,450.47c-1-5.81-6.28-8.26-9.53-12.31-2.2-2.74-5.39-4.62-7-7.89a10.63,10.63,0,0,0,0-1.6c7.87,6,16.16,11.62,21.66,20.2A4.24,4.24,0,0,0,632.59,450.47Z" transform="translate(-131.41 -56.9)"/><path class="cls-45" d="M827.32,665.22c5.79-.58,8-5.9,11.76-9.06,4.81-4,8.37-9.37,13.76-12.78-4.15,9.91-12.66,16.26-20.43,22.55-26,21-52.73,41.21-79.23,61.64-10.79,8.32-22.55,15.24-34.41,21.79C705.3,756.79,692.13,765.06,677,769c-3,.78-4.73,4-8.12,3.68q0-.86-.08-1.73l.07-3.72c19.73-5.26,37.39-15.21,54.9-25.17,32.59-18.54,59.92-44.39,90.1-66.29C818.47,672.45,821.65,667.25,827.32,665.22Z" transform="translate(-131.41 -56.9)"/><path class="cls-45" d="M889.26,614.23c4.24-5,7.71-10.79,14.58-12.74C899.6,606.45,896.12,612.27,889.26,614.23Z" transform="translate(-131.41 -56.9)"/><path class="cls-45" d="M876.51,625.14c2.94-3.88,5.49-8.21,10.92-9.09C884.54,620,882,624.3,876.51,625.14Z" transform="translate(-131.41 -56.9)"/><path class="cls-45" d="M911.13,596c2.33-4.41,6.14-6.58,10.93-7.29A18.49,18.49,0,0,1,911.13,596Z" transform="translate(-131.41 -56.9)"/><path class="cls-45" d="M856.48,639.74c2.28-3.38,4.45-6.9,9.13-7.27C863.3,635.81,861.13,639.33,856.48,639.74Z" transform="translate(-131.41 -56.9)"/><path class="cls-45" d="M903.84,601.49c1.59-2.94,3.56-5.37,7.29-5.46C909.52,599,907.54,601.37,903.84,601.49Z" transform="translate(-131.41 -56.9)"/><path class="cls-69" d="M521.3,255.6c-9.91-2.43-16.48,2.2-21.47,10.17a17.45,17.45,0,0,1-2.53,3.67c-1.77,1.64-3.21,5-6.47,1.88-3.11-3-2.72-6.1.52-8.36,5.61-3.93,11.53-7.42,17.32-11.09C512,256.07,518.09,251,521.3,255.6Z" transform="translate(-131.41 -56.9)"/><path class="cls-70" d="M534.07,370.57l-5-4.15c3.5-3.22,6.23-.93,7.93,1.82C538,369.91,535.4,370.15,534.07,370.57Z" transform="translate(-131.41 -56.9)"/><path class="cls-71" d="M521.33,364.79l-3.86-3.5,2-2q.87,0,1.75,0c1.12,1.93,4.87,1.75,4.44,4.49C525.35,365.75,522.89,364.75,521.33,364.79Z" transform="translate(-131.41 -56.9)"/><path class="cls-72" d="M552.21,379.41c-3-1.94-6.59-2.84-9-5.67C549.42,372.68,552.66,374.73,552.21,379.41Z" transform="translate(-131.41 -56.9)"/><path class="cls-73" d="M564.84,388.42c-3.27-1.41-6.45-3-8.8-5.78.14-1.74.58-3,2.61-1.58,3.36,2.42,6.7,4.87,10,7.31Z" transform="translate(-131.41 -56.9)"/><path class="cls-74" d="M564.84,388.42l3.86,0c.41,2.4,6.18,1.65,3.46,5.89C568.62,393.7,565.75,392.29,564.84,388.42Z" transform="translate(-131.41 -56.9)"/><path class="cls-75" d="M499.36,789.29c3.64-3,7.28-2.76,10.92,0A60.05,60.05,0,0,0,496.55,797c-10.47,7.75-23.2,9.26-35.34,12.06-10.89,2.51-21.55,5.08-30.8,11.79-2.12,1.54-4.53,3-7.43,2.88a64.53,64.53,0,0,1,28.21-14.75c13.36-3.14,27.28-4.68,39.57-11.38C494.22,795.68,499,794.58,499.36,789.29Z" transform="translate(-131.41 -56.9)"/><path class="cls-76" d="M665.29,763.63c2.43,0,3.64,1.16,3.58,3.61-4.24,1.52-8.55,2.89-12.72,4.59a276.82,276.82,0,0,1-79.39,19.45c-11.8,1.12-23.49,1.07-35.24,1.41-4,.11-7.76,1-11.61,1.42-3.53.42-8.79,3.23-10.43-3.35,1.7-.92,3.27-2.26,5.44-1.72,7.29,3.24,14.62,2.35,22,.23L565,789c3.61.34,3-1.55,1.9-3.65,8.06,1.59,15.93-.4,23.86-1.29.27,1.51.63,3.13,2.68,2.45,7.46-2.46,15.57-2.63,22.63-6.47,12.21-.65,23.13-5.53,33.82-10.82,3.17-1.57-.63-1.42-1.16-2.1,1.58-1.78,3.65-1.68,5.74-1.53C659,769.86,661.84,765.13,665.29,763.63Z" transform="translate(-131.41 -56.9)"/><path d="M552.46,593.91a2.38,2.38,0,0,0-.32-1.45c.29-5.59,6.92-7.42,8.47-12.71-5.61-.43-6.13,7.85-11.93,5.33-.58-2.43-1.69-4.85-.2-7.34a7.58,7.58,0,0,0,3.72-3.87c1.62-.8,4-2.44,2.83-3.69-2.29-2.38-3.27.62-4.32,2.25a8.16,8.16,0,0,0-3.88,3.53c-5.5-4.26-1.8-12.87-8-16.81l2.34-3.57a19.38,19.38,0,0,0,10.13-11.66c-5.71,1.51-9.54,4.8-11,10.44-5.12,1.7-4.15-2.91-5.16-5.18-4.84-10.88-10.14-21.44-18.84-29.88.73-6.93-4.65-9.94-8.29-14.57-7.12-9.07-15.63-15.07-26.5-18.16-5.88-3.82-12.29-7-15.55-13.85a5.3,5.3,0,0,0-4.42-2.61c-6.22-5.68-11.49-12.39-18.85-16.85-1.73-1-3.95-3-4.09-4.67-.76-8.86-7.83-12.33-13.57-17-.25-1.49-1.08-3.19-.63-4.42,2.16-5.93.15-9.81-5.1-12.8-4.37-2.49-6.79-5.69-3.55-11.12,2.38-4,.56-7.63-3-10.21-5.31-3.84-10.16-7.69-7.91-15.5.55-1.91-.5-4.16-1.81-5.94-8.36-11.41-10-24.77-10.32-38.23-.21-10,6.93-16,16.68-14.14,6.29,1.22,12.56,1.31,18.83,2,8.21,3.5,17.08,4.69,25.57,7.19L472,335.67l.06,0c8.32,4.63,17.86,6.66,25.83,12.09,2.39,1.63,4.83,2.91,1.57,5.9-7.94-.88-16-1.32-23.81-2.77-8.08-1.5-12.55,0-17.07,6.46-1.84,2.62-.34,4,1,5.34,5.63,5.6,5.47,11.5,3.38,18.94-3.66,13.08,4.94,27.16,17.77,31.28,4.31,1.39,7.77,2.25,6.67,8.74-.58,3.44-1.57,9.82,5.92,11.17,3.78.68,1.22,5.36,1.79,8.18.48,2.38-2.1,6.42,1.6,6.8,2.82.29,6.47,2.12,9.32-.9,4.24-4.49,8.8-8.21,15.72-6.43.79.2,2-1.09,3-1.8,6.82-5.13,6.81-5.14,17.41-5.31-3.65,10-12.62,15.07-19.22,22.1-3,1.65-5.38,3.76-7.63,8.78a27.9,27.9,0,0,0,10-6.44c3.06.14,5.07-4.64,8.7-1.86.85,3.14-2.74,5.38-2.36,8.91,3.31-1.22,5.18-2.91,6-5.69,3.81-2.66,3.81-2.66,8.93-2.8.61,4.47-4.83,6-4.92,10.72,4.51-1,9.05-2.44,14.59-.21-5.4,4.78.31,12-5.39,16.89-1.17,1,.13,4.42,4.06,3.2,9.37-2.9,9.44-2.69,17.13,3.58a99.75,99.75,0,0,1-13.54,15.81c9.13,1,7.12,6.8,5.63,11.55-1.88,6-1.8,11.58,2.81,15.85,5.46,5.05,6.65,12.21,8.64,18.36,3.12,9.68,8.13,18.87,9.38,29.06.72,5.86,3.49,8,9,9.16,12.31,2.64,24.79,5.21,35.27,12.92,2.81,2.06,4.72,1.47,7-.9a85.93,85.93,0,0,1,7.41-6.31c-2.6-4.42-4.62-7.75-6.55-11.13-1.7-3-4.91-5.84-.57-9.34,3.53-2.85,5.63-7.68,12-3.83,7.39,4.46,15.85,6.8,24.35,8.89s11.68,10.8,17.91,15.83c2,1.61,3.24,4.13,4.85,6.26a32,32,0,0,1-14.92,11.47,517.61,517.61,0,0,0-69.12,33.56c-5.4,3.14-10.82,6.71-17.7,6.26-2.82-.18-5,1.94-7,3.85-4.32-.3-9.57-.57-8.15-6.61s-1.42-8-5.89-10.28c-3.93-2-9.87-3.29-7.66-10.22l3.59-3.17c4.27.17,7.13-.93,5.5-6.09.43-1.75-1.33-2.37-1.86-3.63,1.12-2.22,4.91-3.55,3.53-6.33-1-1.93-3.87-2.17-5.72.23-1,0-2.24.74-2.94-.87C564.12,603.69,558.8,598.34,552.46,593.91Zm.69-39.56c-3,2.46-9,2.77-7.47,10.12C550,561.77,552.91,559.29,553.15,554.35Z" transform="translate(-131.41 -56.9)"/><path class="cls-36" d="M481.3,497.67c8.51,6.06,18.53,10.08,25.1,18.74,9.12,12,17.34,24.55,22.39,38.92,3.5,9.95,7.17,19.83,10.76,29.74,1.13,3.12,2.68,6.16,3.33,9.38,1.06,5.29-1.78,8.43-7.26,8.86-10.64.83-21.08-1.39-31.52-2.56-20-2.24-40-5-59.74-8.56-14.49-2.62-28.7-6.78-43-10.5-13.7-3.57-27.62-6.65-40.92-11.4-23.25-8.31-47-15.61-68.91-27.25,2.89-7.28,5.94-14.5,8.63-21.85,2.82-7.68,10.22-6.27,15.42-6.69,9.25-.74,16.94-3.61,23.73-9.63a39.66,39.66,0,0,1,20.92-9.75c10.6-1.65,21.23-3.69,31-8.84,5.84-3.08,10.6-1.91,14.51,4.18,6.39,10,27,12.07,36.72,4.1-.37-.71-.57-1.89-1.17-2.14-17.07-7-12.64-21.86-12.65-34.94,0-4.19,3-4.05,5.66-2,2.41,1.79,4.56,3.93,6.83,5.92.27,2.57,1.48,4.86,4.05,5.06,4.53.37,8.09,3.41,12.48,4,.83,2.46,3.94,3.84,3.29,7-4.49.75-6.69,4.95-10.41,7-2.28,1.24-2.59,3.75-.12,6,5.57,5.1,11.06,10.3,16.39,15.65,3.32,3.34,6.19,3.15,9.21-.22C478.2,503.35,481.23,501.48,481.3,497.67Z" transform="translate(-131.41 -56.9)"/><path class="cls-77" d="M261,548.7c-2.11.41-1.15,3.36-2.23,3.65-6.59-1.56,8-14.66-7.22-11-.35-7.18-6.73-9.2-11.38-11.7-8.27-4.44-10.66-10.35-10.54-19.55.25-19,7.76-34.88,18.17-50,3-4.35,6.08-4.39,9.53-.65,1.22,1.32,2.84,2.46,3.56,4,5.73,12.3,13.22,23.64,18.73,36.12,4.59,10.42,3.68,20.77,2.43,31.1-.66,5.42-.87,10.75-1,16.15a2.62,2.62,0,0,0-.73.49c-2.2,3-2.91,9.92-1.67,14,.15.48-.88,1.31-1.36,2C271.6,558.62,270.08,549.42,261,548.7Z" transform="translate(-131.41 -56.9)"/><path class="cls-78" d="M472,335.67c-1.32-3.11-2.86-6.15,1.1-8.69,10.36-6.65,20.83-13.15,29.78-22.87,3.78,6.06.91,10.68-1.1,15-2.58,5.49-7.38,9.49-11.08,14.25-1.3,1.67-2.88,2.76-4.56,1.82-4.92-2.78-9.41.31-14.08.57Z" transform="translate(-131.41 -56.9)"/><path class="cls-79" d="M457.66,470.38c-4.39-.54-7.95-3.58-12.48-4-2.58-.21-3.79-2.49-4.05-5.06C440.47,454.27,435,450,431,445c-3.32-4.12-5.71-8.16-6-13.41,5.74,4.66,12.81,8.13,13.57,17,.15,1.69,2.36,3.62,4.09,4.67,7.35,4.46,12.62,11.18,18.85,16.85a2.39,2.39,0,0,0-.85.51Z" transform="translate(-131.41 -56.9)"/><path class="cls-80" d="M453.81,328.45c-8.49-2.5-17.36-3.69-25.57-7.19.36-3.38,1.91-5.7,5.59-5.75,6-.08,12,0,18,0,4.44-.06,4,3.79,5.07,6.27C458.22,324.87,458,327.65,453.81,328.45Z" transform="translate(-131.41 -56.9)"/><path class="cls-81" d="M514.75,274.58c-5.63,6.36-9.61,12.23-11.83,19.2-.93,2.94-3.72,3.82-6.74,3.26s-3.87-2.56-3.86-5.29C492.35,284.25,504.94,273.64,514.75,274.58Z" transform="translate(-131.41 -56.9)"/><path class="cls-34" d="M235.3,623.31c-3.82-7.68-.79-15.84-1.7-23.73C237.49,607.25,234.5,615.41,235.3,623.31Z" transform="translate(-131.41 -56.9)"/><path class="cls-82" d="M407.21,389.79c-2.09,4.84-3.76,7.27-6.95,9.56C399,393.46,401.69,391.87,407.21,389.79Z" transform="translate(-131.41 -56.9)"/><path class="cls-83" d="M519.48,359.25l-2,2c-3.62-1.87-7.17-3.83-9.34-7.51C512.82,353.72,516,356.86,519.48,359.25Z" transform="translate(-131.41 -56.9)"/><path class="cls-84" d="M747.07,717.47c.45,4.42-3.49,5.45-6,7.13-15.84,10.47-32.44,19.65-49.24,28.47-1.62.85-3.25,1.89-4.67-.3,10.64-8.35,23.08-13.65,34.77-20.2C730.46,727.78,737.46,720.44,747.07,717.47Z" transform="translate(-131.41 -56.9)"/><path class="cls-85" d="M565.17,630.78C563,637.7,568.9,639,572.83,641c4.47,2.31,7.31,4.22,5.89,10.28s3.84,6.31,8.15,6.61l-1.71,2.21c-4.68-.15-7.8-2.19-9.39-6.83-1.88-5.49-6.68-9-10.06-13.49-2.94-3.88-4.1-7.15-1-11.22Z" transform="translate(-131.41 -56.9)"/><path class="cls-86" d="M648.75,767.15c.54.68,4.33.54,1.16,2.1-10.69,5.29-21.61,10.17-33.82,10.82l-1.81-1.9C626.06,775.4,637.25,770.8,648.75,767.15Z" transform="translate(-131.41 -56.9)"/><path class="cls-87" d="M614.28,778.18l1.81,1.9c-7.06,3.84-15.17,4-22.63,6.47-2.06.68-2.41-.94-2.68-2.45C598,779.75,606.34,779.75,614.28,778.18Z" transform="translate(-131.41 -56.9)"/><path class="cls-88" d="M817.66,661.16c2.58,1.66.72,2.92-.43,4.13a65.62,65.62,0,0,1-19.16,14.42l-1.76-1.78Z" transform="translate(-131.41 -56.9)"/><path class="cls-89" d="M665.29,763.63c-3.45,1.5-6.3,6.23-10.8,2,7.39-3.92,13.91-9.93,23.07-9.61,2.21,2,2.21,2,1.36,2.53C674.67,761,669.3,760.52,665.29,763.63Z" transform="translate(-131.41 -56.9)"/><path class="cls-90" d="M546.89,789.26c-7.35,2.12-14.68,3-22-.23,3.25-4,9.06-3.32,11.58-2.15,4.41,2,7,0,10.36-1Z" transform="translate(-131.41 -56.9)"/><path class="cls-91" d="M765.19,703.47c-2.2,4.81-6.71,7.52-10.18,11.18-1.54,1.62-3.13,1.49-4.37-.52,4.87-2.85,7.46-8.46,12.86-10.68l.85,0Z" transform="translate(-131.41 -56.9)"/><path class="cls-92" d="M546.89,789.26l0-3.41c2.44-.83,4.87-1.52,7.33-.07,2.87,3.54,8-.57,10.82,3.26Z" transform="translate(-131.41 -56.9)"/><path class="cls-93" d="M765.19,703.47l-.85,0-.85,0c2.14-2.14,3.67-5,7-5.68,1.46.54,4.15.32,1.93,3.13C770.57,703.27,768,703.78,765.19,703.47Z" transform="translate(-131.41 -56.9)"/><path class="cls-94" d="M796.31,677.94l1.76,1.78c-3.24.68-3.91,7.83-9.1,3.61C791.12,681.13,792.17,677.43,796.31,677.94Z" transform="translate(-131.41 -56.9)"/><path class="cls-95" d="M565,789c-2.78-3.83-8,.29-10.82-3.26l12.73-.39C568,787.48,568.63,789.37,565,789Z" transform="translate(-131.41 -56.9)"/><path class="cls-96" d="M525.29,457.81a27.9,27.9,0,0,1-10,6.44c2.25-5,4.68-7.13,7.63-8.78Z" transform="translate(-131.41 -56.9)"/><path class="cls-97" d="M537.6,459.18c-.79,2.78-2.66,4.47-6,5.69-.39-3.53,3.21-5.77,2.36-8.91Z" transform="translate(-131.41 -56.9)"/><path class="cls-98" d="M261,548.7c9.12.73,10.64,9.92,16.25,14.56,7.84,13.62,11.48,29.06,18.56,43,.93,1.84,1.45,3.29-.21,4.8s-3.43.81-4.72-.64c-3-3.33-7-5.69-8.3-10.5-4.4-15.77-10.63-30.75-20-44.31A9.58,9.58,0,0,1,261,548.7Z" transform="translate(-131.41 -56.9)"/><path class="cls-99" d="M481.3,497.67c-.08,3.81-3.1,5.68-5.29,8.12-3,3.37-5.89,3.56-9.21.22-5.33-5.35-10.82-10.55-16.39-15.65-2.46-2.26-2.16-4.77.12-6,3.72-2,5.92-6.22,10.41-7l.36.29c3,5,7.49,8.61,11.68,12.4,4.57,4.12,4.45-.17,4.72-3.21a4.88,4.88,0,0,1,1.51.16l3.82,5.12C480.93,493.5,481.3,495.64,481.3,497.67Z" transform="translate(-131.41 -56.9)"/><path class="cls-100" d="M548.48,577.74c-1.49,2.49-.38,4.91.2,7.34l-.65,2c-6.57-8.38-8.45-18.81-12-28.44-5.23-14.34-13.41-26.82-21.88-39.24l2.14-.13c8.71,8.43,14,19,18.84,29.88,1,2.27,0,6.88,5.16,5.18a4.25,4.25,0,0,1,.9,1.22l-2.34,3.57c6.17,3.94,2.47,12.55,8,16.81Z" transform="translate(-131.41 -56.9)"/><path class="cls-101" d="M516.31,519.31l-2.14.13c-3.12-12.41-13.56-17.54-23.38-23.13-2.53-1.44-5.82-1.53-7.75-4.17L479.23,487l2.3-.44c10.87,3.09,19.38,9.09,26.5,18.16C511.66,509.37,517,512.37,516.31,519.31Z" transform="translate(-131.41 -56.9)"/><path class="cls-102" d="M552.46,593.91c6.35,4.43,11.66,9.78,14.81,17,.71,1.62,1.9.83,2.94.87-.33,3.39-2.9,4.22-6.27,5.13-.35-6.4-5.23-10.2-8.58-14.9C553.53,599.44,551.76,597.22,552.46,593.91Z" transform="translate(-131.41 -56.9)"/><path class="cls-103" d="M548,587.12l.65-2c5.8,2.51,6.32-5.76,11.93-5.33-1.54,5.29-8.18,7.11-8.47,12.71A6.26,6.26,0,0,1,548,587.12Z" transform="translate(-131.41 -56.9)"/><path class="cls-104" d="M572.4,617.87c.53,1.26,2.29,1.89,1.86,3.63l-5.36,3.63a2.84,2.84,0,0,0-2.1-2.12C568.24,620.83,569.86,618.85,572.4,617.87Z" transform="translate(-131.41 -56.9)"/><path class="cls-105" d="M566.8,623a2.84,2.84,0,0,1,2.1,2.12l-.14,2.47-3.59,3.17-.48-2.22C565.31,626.68,564.93,624.42,566.8,623Z" transform="translate(-131.41 -56.9)"/><path class="cls-106" d="M481.53,486.58l-2.3.44a4.88,4.88,0,0,0-1.51-.16c-7.17-1.66-10-8.19-14.53-12.87l-2.48-3.35a2.39,2.39,0,0,1,.85-.51,5.3,5.3,0,0,1,4.42,2.61C469.24,479.6,475.64,482.76,481.53,486.58Z" transform="translate(-131.41 -56.9)"/><path class="cls-107" d="M541.21,555.58a4.25,4.25,0,0,0-.9-1.22c1.48-5.64,5.32-8.93,11-10.44A19.38,19.38,0,0,1,541.21,555.58Z" transform="translate(-131.41 -56.9)"/><path class="cls-108" d="M553.15,554.35c-.24,4.94-3.19,7.42-7.47,10.12C544.19,557.12,550.12,556.81,553.15,554.35Z" transform="translate(-131.41 -56.9)"/><path class="cls-109" d="M548.48,577.74,546.83,576a8.16,8.16,0,0,1,3.88-3.53l1.49,1.43A7.58,7.58,0,0,1,548.48,577.74Z" transform="translate(-131.41 -56.9)"/><path class="cls-110" d="M568.76,627.6l.14-2.47,5.36-3.63C575.89,626.67,573,627.77,568.76,627.6Z" transform="translate(-131.41 -56.9)"/><path class="cls-109" d="M552.2,573.87l-1.49-1.43c1.06-1.63,2-4.63,4.32-2.25C556.23,571.42,553.83,573.06,552.2,573.87Z" transform="translate(-131.41 -56.9)"/><path class="cls-99" d="M460.7,470.63l2.48,3.35c-.15,1.47-.39,2.89-1.87,3.68l-.36-.29c.66-3.16-2.46-4.54-3.29-7Z" transform="translate(-131.41 -56.9)"/><path class="cls-79" d="M461.31,477.67c1.48-.79,1.72-2.22,1.87-3.68,4.5,4.68,7.36,11.21,14.53,12.87-.27,3-.16,7.34-4.72,3.21C468.8,486.28,464.3,482.64,461.31,477.67Z" transform="translate(-131.41 -56.9)"/></g></svg>