<svg id="Layer_1" data-name="Layer 1" xmlns="http://www.w3.org/2000/svg" viewBox="0 0 114.01 70.66"><defs><style>.cls-1{fill:#b5b9bc;}.cls-2{fill:#fff;}.cls-3{fill:#99c9d2;}.cls-3,.cls-4{stroke:#1e1e1c;stroke-width:0.3px;}.cls-4{fill:#e7b360;}</style></defs><title>logo_engelsk_hvit undertxt</title><polygon class="cls-1" points="45.7 0 59.21 58.56 0.65 58.56 45.7 0"/><path class="cls-2" d="M62.43,39h3l6.81,15.54h0V39h2.21v19.3H71.68l-7-15.87h0V58.33H62.43Z"/><path class="cls-2" d="M78,39h2.21v19.3H78Z"/><path class="cls-2" d="M83.71,39h3l6.81,15.54h0V39h2.21v19.3H93L86,42.46h0V58.33H83.71Z"/><path class="cls-2" d="M107.86,51.2h-6.15l3.08-9.57ZM97.11,58.33h2.32L101,53.47h7.56l1.56,4.87h2.41L106,39H103.7Z"/><path class="cls-3" d="M14.87,26.67c.23,4.9,1.55,9.42,5.28,12.77A15.73,15.73,0,0,0,45.08,21.6c6.49,6.28,7.65,16.6,4,25.13a15.39,15.39,0,0,1-10.39,8.71,16.78,16.78,0,0,1-14.92-3.28C16,46,13.3,35.61,14.91,26A2.47,2.47,0,0,0,14.87,26.67Z"/><ellipse class="cls-4" cx="36.58" cy="27.44" rx="7.68" ry="7.62" transform="translate(2.13 57.52) rotate(-78)"/><path class="cls-2" d="M0,63.28H.87l2,4.51h0V63.28H3.5v5.6H2.68l-2-4.6h0v4.6H0Z"/><path class="cls-2" d="M5.87,64.7c1,0,1.66.9,1.66,2.14S6.85,69,5.87,69,4.2,68,4.2,66.84,4.87,64.7,5.87,64.7Zm0,3.67c.7,0,1-.8,1-1.53s-.38-1.53-1-1.53-1,.75-1,1.53S5.16,68.36,5.87,68.36Z"/><path class="cls-2" d="M8.18,64.79h.56v.63h0a1,1,0,0,1,.85-.73,1.43,1.43,0,0,1,.4.06v.67a.74.74,0,0,0-.34-.07c-.54,0-.89.64-.89,1.67v1.86h-.6Z"/><path class="cls-2" d="M14.21,68.88h-.7l-.85-3.43h0l-.83,3.43h-.7l-1-4.09h.66l.75,3.38h0l.83-3.38H13l.82,3.38h0l.79-3.38h.59Z"/><path class="cls-2" d="M18.2,68.71a2.06,2.06,0,0,1-1,.27c-1.16,0-1.69-.88-1.69-2.22S16.09,64.7,17,64.7c1.09,0,1.44,1,1.44,2.31H16.12a1.22,1.22,0,0,0,1.08,1.36,1.66,1.66,0,0,0,1-.41Zm-.39-2.27c0-.63-.3-1.14-.82-1.14s-.83.61-.88,1.14Z"/><path class="cls-2" d="M22,68.7c0,1.24-.51,2-1.68,2a2.73,2.73,0,0,1-1.17-.28l.06-.7a2.11,2.11,0,0,0,1.18.37c.63,0,1-.54,1-1.4v-.41h0a1.28,1.28,0,0,1-1.1.63c-.94,0-1.4-.95-1.4-2s.48-2.17,1.46-2.17a1.05,1.05,0,0,1,1.08.7h0v-.61H22Zm-.6-1.82c0-.85-.32-1.58-1-1.58s-.91.83-.91,1.52.35,1.44.91,1.44S21.39,67.65,21.39,66.88Z"/><path class="cls-2" d="M23.58,63.88H22.9V63h.68Zm-.64.91h.6v4.09h-.6Z"/><path class="cls-2" d="M24.63,65.08a1.82,1.82,0,0,1,1.08-.38c.93,0,1.31.58,1.31,1.69v1.68c0,.47,0,.69,0,.81h-.56v-.53h0a1.17,1.17,0,0,1-1,.63,1.12,1.12,0,0,1-1.2-1.28,1.38,1.38,0,0,1,1.52-1.35c.24,0,.4,0,.64,0,0-.71-.2-1.07-.81-1.07a1.36,1.36,0,0,0-.95.41Zm1.79,1.85-.38,0c-.32,0-1.14.06-1.14.79a.63.63,0,0,0,.61.66c.6,0,.91-.46.91-1.07Z"/><path class="cls-2" d="M27.89,64.79h.59v.65h0a1.15,1.15,0,0,1,1.07-.74c.85,0,1.23.66,1.23,1.75v2.43h-.6V66.77c0-1-.17-1.42-.69-1.46-.69,0-1,.69-1,1.68v1.89h-.6Z"/><path class="cls-2" d="M33.33,63.28H34v5.6h-.64Z"/><path class="cls-2" d="M34.89,64.79h.59v.65h0a1.15,1.15,0,0,1,1.07-.74c.85,0,1.23.66,1.23,1.75v2.43h-.6V66.77c0-1-.17-1.42-.69-1.46-.69,0-1,.69-1,1.68v1.89h-.61Z"/><path class="cls-2" d="M38.41,68.08a1.37,1.37,0,0,0,.75.29.56.56,0,0,0,.62-.58c0-.75-1.42-.68-1.42-1.83a1.12,1.12,0,0,1,1.16-1.26,2,2,0,0,1,.75.16l-.05.65a1.54,1.54,0,0,0-.64-.21.51.51,0,0,0-.58.5c0,.83,1.42.59,1.42,1.9A1.15,1.15,0,0,1,39.27,69a1.59,1.59,0,0,1-.9-.22Z"/><path class="cls-2" d="M42.72,65.4h-.86v2.24c0,.47.23.73.51.73a.66.66,0,0,0,.41-.14v.64a1.78,1.78,0,0,1-.51.11c-.62,0-1-.37-1-1.19V65.4h-.74v-.61h.74v-.95l.6-.24v1.19h.86Z"/><path class="cls-2" d="M44,63.88h-.68V63H44Zm-.64.91H44v4.09h-.6Z"/><path class="cls-2" d="M46.68,65.4h-.87v2.24c0,.47.23.73.51.73a.69.69,0,0,0,.41-.14v.64a1.88,1.88,0,0,1-.51.11c-.62,0-1-.37-1-1.19V65.4h-.74v-.61h.74v-.95l.6-.24v1.19h.87Z"/><path class="cls-2" d="M50.17,68.88h-.58v-.65h0A1.16,1.16,0,0,1,48.5,69c-.85,0-1.23-.66-1.23-1.76V64.79h.6v2.12c0,.95.17,1.42.69,1.45.69,0,1-.69,1-1.68V64.79h.61Z"/><path class="cls-2" d="M52.77,65.4h-.86v2.24c0,.47.23.73.51.73a.66.66,0,0,0,.41-.14v.64a1.8,1.8,0,0,1-.51.11c-.62,0-1-.37-1-1.19V65.4h-.74v-.61h.74v-.95l.6-.24v1.19h.86Z"/><path class="cls-2" d="M55.88,68.71a2.07,2.07,0,0,1-1,.27c-1.16,0-1.69-.88-1.69-2.22s.61-2.07,1.53-2.07c1.09,0,1.44,1,1.44,2.31H53.79a1.22,1.22,0,0,0,1.08,1.36,1.67,1.67,0,0,0,1-.41Zm-.39-2.27c0-.63-.29-1.14-.82-1.14s-.83.61-.88,1.14Z"/><path class="cls-2" d="M58.79,65.4H58v-.61h.77v-.38c0-1,.2-1.64,1.09-1.64a1.93,1.93,0,0,1,.41,0l0,.61a.66.66,0,0,0-.29-.05c-.52,0-.58.42-.58,1v.44h.87v.61h-.87v3.48h-.6Z"/><path class="cls-2" d="M62.18,64.7c1,0,1.66.9,1.66,2.14S63.16,69,62.18,69s-1.67-1-1.67-2.15S61.18,64.7,62.18,64.7Zm0,3.67c.71,0,1-.8,1-1.53s-.38-1.53-1-1.53-1,.75-1,1.53S61.47,68.36,62.18,68.36Z"/><path class="cls-2" d="M64.49,64.79h.56v.63h0a1,1,0,0,1,.85-.73,1.41,1.41,0,0,1,.4.06v.67a.72.72,0,0,0-.33-.07c-.54,0-.89.64-.89,1.67v1.86h-.6Z"/><path class="cls-2" d="M68.5,63.28h.87l2,4.51h0V63.28H72v5.6h-.82l-2-4.6h0v4.6H68.5Z"/><path class="cls-2" d="M73.07,65.08a1.81,1.81,0,0,1,1.08-.38c.94,0,1.31.58,1.31,1.69v1.68a7.23,7.23,0,0,0,0,.81h-.56v-.53h0a1.17,1.17,0,0,1-1,.63,1.12,1.12,0,0,1-1.2-1.28,1.39,1.39,0,0,1,1.52-1.35c.24,0,.4,0,.64,0,0-.71-.2-1.07-.81-1.07a1.37,1.37,0,0,0-.95.41Zm1.79,1.85-.38,0c-.33,0-1.14.06-1.14.79a.63.63,0,0,0,.61.66c.6,0,.91-.46.91-1.07Z"/><path class="cls-2" d="M78.07,65.4H77.2v2.24c0,.47.23.73.5.73a.69.69,0,0,0,.41-.14v.64a1.85,1.85,0,0,1-.52.11c-.62,0-1-.37-1-1.19V65.4h-.74v-.61h.74v-.95l.6-.24v1.19h.87Z"/><path class="cls-2" d="M81.55,68.88H81v-.65h0a1.16,1.16,0,0,1-1.07.75c-.85,0-1.22-.66-1.22-1.76V64.79h.6v2.12c0,.95.17,1.42.69,1.45.69,0,1-.69,1-1.68V64.79h.6Z"/><path class="cls-2" d="M82.42,64.79H83v.63h0a1,1,0,0,1,.85-.73,1.44,1.44,0,0,1,.4.06v.67a.74.74,0,0,0-.33-.07c-.54,0-.89.64-.89,1.67v1.86h-.6Z"/><path class="cls-2" d="M87.26,68.71a2.07,2.07,0,0,1-1,.27c-1.16,0-1.69-.88-1.69-2.22s.61-2.07,1.53-2.07c1.09,0,1.44,1,1.44,2.31H85.18a1.22,1.22,0,0,0,1.08,1.36,1.66,1.66,0,0,0,1-.41Zm-.39-2.27c0-.63-.3-1.14-.81-1.14s-.83.61-.88,1.14Z"/><path class="cls-2" d="M89.8,63.28h1.1c.88,0,1.74.17,1.74,1.52a1.23,1.23,0,0,1-.92,1.27v0c.2.1.29.22.43.56L93,68.88h-.73l-.69-1.94c-.2-.54-.41-.54-.75-.54h-.38v2.48H89.8Zm.64,2.41H91a.85.85,0,0,0,1-.87.79.79,0,0,0-.9-.82h-.62Z"/><path class="cls-2" d="M96,68.71A2,2,0,0,1,95,69c-1.16,0-1.7-.88-1.7-2.22s.61-2.07,1.53-2.07c1.09,0,1.45,1,1.45,2.31H94A1.22,1.22,0,0,0,95,68.36,1.67,1.67,0,0,0,96,68Zm-.39-2.27c0-.63-.29-1.14-.81-1.14s-.83.61-.88,1.14Z"/><path class="cls-2" d="M96.7,68.08a1.36,1.36,0,0,0,.75.29.56.56,0,0,0,.61-.58c0-.75-1.42-.68-1.42-1.83a1.12,1.12,0,0,1,1.15-1.26,2,2,0,0,1,.75.16l-.05.65a1.53,1.53,0,0,0-.64-.21.51.51,0,0,0-.57.5c0,.83,1.42.59,1.42,1.9A1.15,1.15,0,0,1,97.57,69a1.58,1.58,0,0,1-.9-.22Z"/><path class="cls-2" d="M101.79,68.71a2.06,2.06,0,0,1-1,.27c-1.16,0-1.69-.88-1.69-2.22s.61-2.07,1.53-2.07c1.09,0,1.44,1,1.44,2.31H99.71a1.22,1.22,0,0,0,1.08,1.36,1.66,1.66,0,0,0,1-.41Zm-.39-2.27c0-.63-.3-1.14-.81-1.14s-.83.61-.88,1.14Z"/><path class="cls-2" d="M102.84,65.08a1.79,1.79,0,0,1,1.08-.38c.94,0,1.31.58,1.31,1.69v1.68a7.79,7.79,0,0,0,0,.81h-.56v-.53h0a1.17,1.17,0,0,1-1,.63,1.12,1.12,0,0,1-1.2-1.28A1.38,1.38,0,0,1,104,66.35c.24,0,.4,0,.64,0,0-.71-.2-1.07-.81-1.07a1.38,1.38,0,0,0-.95.41Zm1.79,1.85-.38,0c-.33,0-1.13.06-1.13.79a.63.63,0,0,0,.61.66c.6,0,.91-.46.91-1.07Z"/><path class="cls-2" d="M106.09,64.79h.56v.63h0a1,1,0,0,1,.86-.73,1.39,1.39,0,0,1,.4.06v.67a.72.72,0,0,0-.33-.07c-.54,0-.89.64-.89,1.67v1.86h-.6Z"/><path class="cls-2" d="M110.51,65.48a1.43,1.43,0,0,0-.66-.18c-.67,0-1,.75-1,1.53s.31,1.53,1.09,1.53a1.08,1.08,0,0,0,.65-.23l0,.67a1.48,1.48,0,0,1-.76.17c-1,0-1.67-1-1.67-2.15s.67-2.14,1.67-2.14a1.81,1.81,0,0,1,.73.16Z"/><path class="cls-2" d="M111.11,62.87h.61v2.51h0a1.16,1.16,0,0,1,1.05-.68c.85,0,1.23.66,1.23,1.75v2.43h-.6V66.77c0-1-.16-1.42-.69-1.46-.69,0-1,.69-1,1.68v1.89h-.61Z"/></svg>