<svg id="Layer_2" data-name="Layer 2" xmlns="http://www.w3.org/2000/svg" viewBox="0 0 114.51 106.05"><defs><style>.cls-1{fill:#00bbe5;}.cls-2,.cls-4,.cls-7,.cls-8{fill:#ffd520;}.cls-2,.cls-3,.cls-5,.cls-6,.cls-7,.cls-8{stroke:#231f20;}.cls-2{stroke-miterlimit:2;stroke-width:0.55px;}.cls-3{fill:#ef3e42;}.cls-3,.cls-4,.cls-5,.cls-6,.cls-7,.cls-8{stroke-width:0.65px;}.cls-4{stroke:#ffd520;}.cls-5,.cls-6{fill:none;}.cls-5{stroke-linecap:round;stroke-linejoin:round;}.cls-8{fill-rule:evenodd;}.cls-9{fill:#fff;}</style></defs><title>npi</title><path class="cls-1" d="M58.22,79.65a24.13,24.13,0,1,0,0-31.16" transform="translate(-1.23 -1.43)"/><path class="cls-2" d="M63.76,63.69a61.24,61.24,0,0,0-1-8c.92-.24,2.5,1.25,2.5,1.25s.6,1.25,1.53.77a7,7,0,0,1,1.81-.49c.32-.16.85-.89,1.53-1.09s.72-.65.72-1.74,1-4.32,1.85-5,3.14-1.5,3.3-2.22.4,0,.84.53a1.8,1.8,0,0,0,2.09.16c.64-.4,1.49.73,3.1,1.09s2.05.81,2.65.57,1.13,0,1.13.73.08,1.09.8.93,2.7-.08,2.66.57.88.36,1.61.24,1.41.93,1.29,1.45-.56,1.33-.2,2a4.66,4.66,0,0,1,.56,1.74c0,.32.28.4.12.81s.24.73-.2,1.09-1.16.65-.28.81a1.58,1.58,0,0,1,1.25.85c.16.24,0,.28.56.12s1.21-.37,1.21.24,0,1.74.2,1.78.32.49,0,1-.88,1.25-.28,1.38.93-.24,1,0a2,2,0,0,1,0,1.45c-.24.45-.32,2.18-.8,2.51s-.72-.37-1.08.57,0,1.29,0,1.66-.44,1.05-.76,1.09-1.21,1.05-1.53,1.62-.32.81-.52,1.17-.65.2-.77.69a11.22,11.22,0,0,1-.64,1.25,2.13,2.13,0,0,1-1.53,1.13c-.73.08-2.09,1.17-2.66.77s-1-.36-2.29-.24-3.38.08-3.78.08-1.73-.08-1.81-.69.28-.77.28-1.17.24-.77.88-1,.69-.49.24-.93A1.48,1.48,0,0,1,79,74c0-.36-.24-.32-.52,0s-.76,0-1.08,0a12.69,12.69,0,0,0-1.81-.32c-.6,0-1.16-.65-1.45-.69s-1,.52-1.49.77-.28-.12-1-.36-2.17.12-2.65,0-1.33-1-1.61-.89-1.17,0-1.37-.32-1.13-1.09-1.29-2,0-1.21-1.17-1.94C63,67.87,63.84,66.41,63.76,63.69Z" transform="translate(-1.23 -1.43)"/><path class="cls-3" d="M58.41,31.49c22.69,0,19.26-8.38,19.26-8.38-4.53-2.54-11.47-4.4-19.26-4.4-7.61,0-14.41,1.78-18.94,4.23C39.46,22.93,35.64,31.49,58.41,31.49Z" transform="translate(-1.23 -1.43)"/><path class="cls-4" d="M58.51,1.75h-.62V4h-2V5.42h2V8.19a4.09,4.09,0,0,0-2.79,6.22l0,0c-.41,0-1.52-.17-2.23-.2a9.42,9.42,0,0,0-4.77,1.13A5.23,5.23,0,0,0,47,15.16h0a18.18,18.18,0,0,0-4.6.05A6.59,6.59,0,0,0,38,17.53a3.71,3.71,0,0,0-.37,2.72s.1.27.21.52a5.48,5.48,0,0,0-1.26.36A43,43,0,0,1,39.7,32.7H58.5M41,21.81a1.16,1.16,0,0,0-.89-.92c-.09-.16-.28-.48-.34-.61h0s-.91-2.21,2-2.83a13.91,13.91,0,0,1,4.5-.38h0l.62.11a4.77,4.77,0,0,0,.53,2.5l.22.44.21.41-.45.16c-.86.32-.62,1.51.05,2s1,.92.83,1-.11.32-.67-.32-1.37-.94-1.85-.65-.56,1.62.08,2.91,1.82.4,2.12.19.46-.46.43-.11a11.22,11.22,0,0,1-.19,1.32c-.05.16-.56,1.16-3.73,1.16S41,26.53,41,26.53c-.48-.89-.27-.65-.27-.65a13,13,0,0,0,1.45.57c1.21.43,1.53-.67,1.56-1.1s.05-1.83-.7-2.4-1.58.16-1.77.32-1,1-1.07,1,0-.35,0-.35A2.83,2.83,0,0,0,41,22.33Zm8.82-2.72c-.29-2.16.16-2.24,1.21-2.64s5.4.34,5.4.34v0a2.77,2.77,0,0,0,.35.19c.06.43.15.91.26,1.42l.11.48c.06.26.13.53.21.8l.06.4a2.16,2.16,0,0,0-.57.27c-1,.75.16,2.16.35,2.34s.68.7.64.92-.16.08-.89-.35-.75-1-1.53-.89-.94,1.19-.78,2.16.75,1.83,1.34,1.83a2.59,2.59,0,0,0,1.53-.89c.32-.32.36-.19.36-.19s-.17.46-.5,1.56-1.74,1.32-3.09,1.32a6.89,6.89,0,0,1-3-.65A1.92,1.92,0,0,1,50.23,26c-.16-.54.16-.43.16-.43s.75.38,1.48.7,1-.32,1.1-.89a3.78,3.78,0,0,0-.56-2.67c-.62-.59-1.23.08-1.58.46s-.46.32-.51.22.16-.51.46-1,.64-1.51-.37-1.89a2.85,2.85,0,0,0-.6-.15c0-.2,0-.47,0-.69Z" transform="translate(-1.23 -1.43)"/><path class="cls-4" d="M58.5,32.7h18.8a43,43,0,0,1,3.12-11.56,5.43,5.43,0,0,0-1.26-.36c.11-.26.21-.52.21-.52A3.73,3.73,0,0,0,79,17.53a6.59,6.59,0,0,0-4.4-2.32,18.18,18.18,0,0,0-4.6-.05h0a5.26,5.26,0,0,0-1.05.21,9.42,9.42,0,0,0-4.77-1.12c-.71,0-1.82.15-2.23.2l0,0a4.09,4.09,0,0,0-2.79-6.22V5.42h2V4h-2V1.75H58.5M76,22.33a2.83,2.83,0,0,0,.79,1.56s.13.3,0,.35-.89-.81-1.07-1-1-.89-1.77-.32-.72,2-.7,2.4a1.12,1.12,0,0,0,1.56,1.1,12.84,12.84,0,0,0,1.45-.57s.21-.24-.27.65c0,0-.3,1.7-3.46,1.7s-3.67-1-3.73-1.16a10.41,10.41,0,0,1-.19-1.32c0-.35.13-.11.43.11s1.48,1.11,2.12-.19.56-2.61.08-2.91-1.29,0-1.85.65-.51.4-.67.32.16-.46.83-1,.91-1.72.05-2l-.45-.16.21-.41.22-.44a4.77,4.77,0,0,0,.53-2.5l.62-.11h0a13.91,13.91,0,0,1,4.5.38c2.87.62,2,2.83,2,2.83h0c-.06.13-.24.45-.34.61a1.16,1.16,0,0,0-.88.92ZM67.17,19.6c0,.22,0,.49,0,.69a2.88,2.88,0,0,0-.6.15c-1,.38-.67,1.37-.38,1.89s.51.92.46,1-.16.16-.51-.22-1-1.05-1.58-.46A3.79,3.79,0,0,0,64,25.34c.08.57.38,1.21,1.1.89s1.47-.7,1.47-.7.32-.11.16.43a1.93,1.93,0,0,1-1.1,1.54,6.88,6.88,0,0,1-3,.65c-1.34,0-2.76-.21-3.09-1.32s-.49-1.56-.49-1.56,0-.14.36.19a2.58,2.58,0,0,0,1.53.89c.59,0,1.18-.86,1.34-1.83s0-2.07-.78-2.16-.8.46-1.53.89-.85.56-.89.35.45-.73.64-.92,1.38-1.59.35-2.34a2.16,2.16,0,0,0-.57-.27l.06-.4c.08-.28.15-.54.21-.8l.11-.48c.12-.52.2-1,.26-1.42a2.91,2.91,0,0,0,.35-.19v0s4.36-.75,5.4-.34,1.5.48,1.21,2.64Z" transform="translate(-1.23 -1.43)"/><path class="cls-5" d="M39.93,20.81a2.32,2.32,0,0,1,1.82-3.37,15.7,15.7,0,0,1,5.15-.22,3.21,3.21,0,0,1,1-1.78,19.3,19.3,0,0,0-5.52-.24A6.12,6.12,0,0,0,38,17.53a3.73,3.73,0,0,0-.24,3.26s.72-.11,1-.11S39.93,20.81,39.93,20.81Z" transform="translate(-1.23 -1.43)"/><path class="cls-6" d="M56.72,14.94a9.69,9.69,0,0,0-1.66-.5c-.41,0-1.52-.17-2.23-.2-.89,0-3.94.14-5.34,1.59s-.28,3.45-.11,3.8c0,0,.35.69.69.84M57.88,8.19V5.42h-2V4h2V1.75h.62m0,30.95H39.7a43,43,0,0,0-3.12-11.56,5.46,5.46,0,0,1,2.28-.43c1.14,0,2,.24,2.15,1.1v.52a2.83,2.83,0,0,1-.79,1.56s-.13.3,0,.35.89-.81,1.07-1,1-.89,1.77-.32.73,2,.7,2.4-.35,1.54-1.56,1.1a13,13,0,0,1-1.45-.57s-.21-.24.27.65c0,0,.29,1.7,3.46,1.7s3.67-1,3.73-1.16a11.22,11.22,0,0,0,.19-1.32c0-.35-.13-.11-.43.11s-1.47,1.11-2.12-.19-.56-2.61-.08-2.91,1.29,0,1.85.65.51.4.67.32-.16-.46-.83-1-.91-1.72-.05-2a4.39,4.39,0,0,1,3-.24c1,.38.67,1.37.38,1.89s-.51.92-.46,1,.16.16.51-.22,1-1.05,1.58-.46A3.78,3.78,0,0,1,53,25.34c-.08.57-.38,1.21-1.1.89s-1.48-.7-1.48-.7-.32-.11-.16.43a1.92,1.92,0,0,0,1.1,1.54,6.89,6.89,0,0,0,3,.65c1.34,0,2.76-.21,3.09-1.32s.5-1.56.5-1.56,0-.14-.36.19a2.59,2.59,0,0,1-1.53.89c-.59,0-1.18-.86-1.34-1.83s0-2.07.78-2.16.81.46,1.53.89.84.56.89.35-.46-.73-.64-.92-1.38-1.59-.35-2.34a2.92,2.92,0,0,1,1.65-.43m-1,.35c-.07-.25-.25-1.12-.32-1.38L57,18.37a8.16,8.16,0,0,1-.26-3.6c.24-.62,1.72-.61,1.73-.61m-8.57,6.06a4.2,4.2,0,0,0-.11-1.14c-.29-2.16.16-2.24,1.21-2.64s5.4.34,5.4.34l.31,0" transform="translate(-1.23 -1.43)"/><path class="cls-5" d="M77.09,20.81a2.32,2.32,0,0,0-1.82-3.37,15.7,15.7,0,0,0-5.15-.22,3.21,3.21,0,0,0-1-1.78,19.3,19.3,0,0,1,5.53-.24A6.11,6.11,0,0,1,79,17.53a3.73,3.73,0,0,1,.24,3.26s-.72-.11-1-.11S77.09,20.81,77.09,20.81Z" transform="translate(-1.23 -1.43)"/><path class="cls-6" d="M68.94,20.47c.34-.15.69-.84.69-.84.18-.35,1.17-2.47-.11-3.8s-4.45-1.62-5.34-1.59c-.71,0-1.82.15-2.23.2a9.71,9.71,0,0,0-1.66.5M58.51,1.75h.62V4h2V5.42h-2V8.19m-.62,11.7a2.92,2.92,0,0,1,1.65.43c1,.75-.16,2.16-.35,2.34s-.68.7-.64.92.16.08.89-.35.75-1,1.53-.89.94,1.19.78,2.16-.75,1.83-1.34,1.83a2.59,2.59,0,0,1-1.53-.89c-.32-.32-.36-.19-.36-.19s.17.46.5,1.56,1.74,1.32,3.08,1.32a6.9,6.9,0,0,0,3-.65A1.93,1.93,0,0,0,66.79,26c.16-.54-.16-.43-.16-.43s-.75.38-1.48.7-1-.32-1.1-.89a3.79,3.79,0,0,1,.56-2.67c.62-.59,1.23.08,1.58.46s.45.32.51.22-.16-.51-.46-1-.64-1.51.38-1.89a4.38,4.38,0,0,1,3,.24c.86.32.62,1.51-.05,2s-1,.92-.83,1,.11.32.67-.32,1.37-.94,1.85-.65.57,1.62-.08,2.91-1.82.4-2.12.19-.46-.46-.43-.11a10.54,10.54,0,0,0,.19,1.32c.05.16.56,1.16,3.73,1.16S76,26.53,76,26.53c.48-.89.27-.65.27-.65a12.84,12.84,0,0,1-1.45.57,1.12,1.12,0,0,1-1.56-1.1c0-.43-.05-1.83.7-2.4s1.58.16,1.77.32,1,1,1.07,1,0-.35,0-.35A2.84,2.84,0,0,1,76,22.33l0-.52c.16-.86,1-1.05,2.15-1.1a5.45,5.45,0,0,1,2.28.43A42.89,42.89,0,0,0,77.32,32.7H58.51m0-18.53s1.49,0,1.73.61a8.14,8.14,0,0,1-.25,3.6l-.11.48c-.07.26-.25,1.13-.31,1.38m.72-3.42.31,0S64.94,16,66,16.45s1.5.48,1.21,2.64a4.18,4.18,0,0,0-.11,1.14" transform="translate(-1.23 -1.43)"/><path class="cls-6" d="M62,14.43a4.1,4.1,0,1,0-7,0" transform="translate(-1.23 -1.43)"/><line class="cls-6" x1="53.19" y1="10.82" x2="61.38" y2="10.82"/><line class="cls-6" x1="57.28" y1="10.79" x2="57.28" y2="6.75"/><path class="cls-6" d="M58.51,32.7H39.7a43,43,0,0,0-3.12-11.56,5.4,5.4,0,0,1,1.19-.35h0A3.73,3.73,0,0,1,38,17.53a6.12,6.12,0,0,1,4.4-2.32,19.3,19.3,0,0,1,5.52.24l0,0a9.11,9.11,0,0,1,4.93-1.24c.71,0,1.82.15,2.23.2a9.69,9.69,0,0,1,1.66.5" transform="translate(-1.23 -1.43)"/><path class="cls-6" d="M60.3,14.94a9.66,9.66,0,0,1,1.66-.5c.41,0,1.52-.17,2.23-.2a9.1,9.1,0,0,1,4.93,1.24l0,0a19.31,19.31,0,0,1,5.53-.24A6.12,6.12,0,0,1,79,17.53a3.73,3.73,0,0,1,.24,3.26h0a5.41,5.41,0,0,1,1.2.35A43,43,0,0,0,77.31,32.7H58.51" transform="translate(-1.23 -1.43)"/><path class="cls-7" d="M17.71,33.82l.05,3.94A43.2,43.2,0,0,1,27.11,32l1.1-3.9A48.73,48.73,0,0,0,17.71,33.82Z" transform="translate(-1.23 -1.43)"/><path class="cls-7" d="M21.48,40l-4.08-.57a34.39,34.39,0,0,0-7.26,8.73l4.29-.9A31.94,31.94,0,0,1,21.48,40Z" transform="translate(-1.23 -1.43)"/><path class="cls-7" d="M27.62,32.89a43.33,43.33,0,0,0-9,5.52l4.24.59a41.87,41.87,0,0,1,8.51-4.42Z" transform="translate(-1.23 -1.43)"/><path class="cls-7" d="M2.64,56.25l2.57,3.23A34.43,34.43,0,0,1,8.69,48.84L7.26,45A37.48,37.48,0,0,0,2.64,56.25Z" transform="translate(-1.23 -1.43)"/><path class="cls-7" d="M9.42,49.42A32.16,32.16,0,0,0,6.1,59.83l3.64-2.11a30.76,30.76,0,0,1,3.8-9.16Z" transform="translate(-1.23 -1.43)"/><path class="cls-7" d="M9.4,47.53A35.17,35.17,0,0,1,15.21,40c.46-.46.94-.9,1.43-1.33l-.05-4A41,41,0,0,0,13,37.79a38.56,38.56,0,0,0-5,6Z" transform="translate(-1.23 -1.43)"/><path class="cls-8" d="M9.43,59.21l-3.49,2q-.06.66-.09,1.32L9,62.67A29.61,29.61,0,0,1,9.43,59.21Z" transform="translate(-1.23 -1.43)"/><path class="cls-8" d="M5,61,2.34,57.68a36.52,36.52,0,0,0-.59,4.71l3.14.12C4.91,62.06,5,61.56,5,61Z" transform="translate(-1.23 -1.43)"/><polygon class="cls-7" points="27.32 30.55 29.48 31.53 36.09 29.47 37.12 27.44 37.12 27.43 35.07 26.18 27.91 28.3 27.32 30.54 27.32 30.55"/><path class="cls-7" d="M99.31,33.82l0,3.94A43.2,43.2,0,0,0,89.91,32l-1.1-3.9A48.73,48.73,0,0,1,99.31,33.82Z" transform="translate(-1.23 -1.43)"/><path class="cls-7" d="M95.54,40l4.08-.57a34.43,34.43,0,0,1,7.26,8.73l-4.29-.9A31.9,31.9,0,0,0,95.54,40Z" transform="translate(-1.23 -1.43)"/><path class="cls-7" d="M89.4,32.89a43.34,43.34,0,0,1,9,5.52L94.21,39a41.85,41.85,0,0,0-8.51-4.42Z" transform="translate(-1.23 -1.43)"/><path class="cls-7" d="M114.38,56.25l-2.57,3.23a34.36,34.36,0,0,0-3.47-10.64L109.76,45A37.42,37.42,0,0,1,114.38,56.25Z" transform="translate(-1.23 -1.43)"/><path class="cls-7" d="M107.6,49.42a32.14,32.14,0,0,1,3.32,10.41l-3.64-2.11a30.82,30.82,0,0,0-3.8-9.16Z" transform="translate(-1.23 -1.43)"/><path class="cls-7" d="M107.62,47.53A35.21,35.21,0,0,0,101.81,40c-.46-.46-.94-.9-1.43-1.33l.05-4A40.73,40.73,0,0,1,104,37.79a38.6,38.6,0,0,1,5,6Z" transform="translate(-1.23 -1.43)"/><path class="cls-8" d="M107.59,59.21l3.49,2q.06.66.1,1.32l-3.14.12A30,30,0,0,0,107.59,59.21Z" transform="translate(-1.23 -1.43)"/><path class="cls-8" d="M112,61l2.67-3.35a36.53,36.53,0,0,1,.59,4.71l-3.14.12C112.11,62.06,112.07,61.56,112,61Z" transform="translate(-1.23 -1.43)"/><polygon class="cls-7" points="87.23 30.55 85.08 31.53 78.46 29.47 77.44 27.44 77.44 27.43 79.49 26.18 86.65 28.3 87.23 30.54 87.23 30.55"/><path class="cls-9" d="M1.63,72c1.81-1.75,3.73-3.83,5.55-5.78-.4,0-1.06.07-2.21.17-.94.09-3.23.34-3.66.43a1.36,1.36,0,0,0,0-.37A1.62,1.62,0,0,0,1.23,66c.52,0,3.32-.09,4.76-.22s2.43-.22,2.92-.3l0,.16c-1.77,1.87-4.19,4.39-5.42,5.78,1.95-.18,4.07-.37,5.75-.61a1.27,1.27,0,0,0,0,.36,1.22,1.22,0,0,0,.08.33c-.65,0-2.81.09-3.66.17l-4,.4Z" transform="translate(-1.23 -1.43)"/><path class="cls-9" d="M10.36,75.81a3.65,3.65,0,0,1-2.62,4.87,3.65,3.65,0,0,1-4.88-2.59,3.64,3.64,0,0,1,2.62-4.86A3.64,3.64,0,0,1,10.36,75.81Zm-.39.12C9.5,74.38,8.1,73.5,5.78,74.2s-3,2.21-2.53,3.76,1.87,2.44,4.2,1.74S10.45,77.49,10,75.93Z" transform="translate(-1.23 -1.43)"/><path class="cls-9" d="M9.41,81.38c.79-.52,1.56-1.08,2.32-1.63.19.35.39.69.61,1s.48.63.7,1c.65,1,.83,2-.25,2.76a2.27,2.27,0,0,1-2.92-.63c-.28.79-1.28,3.54-1.55,4.43a3.93,3.93,0,0,0-.3-.55,3.67,3.67,0,0,0-.38-.47A31.71,31.71,0,0,0,9.19,83L9,82.69l-.67.44c-.78.52-1.56,1.08-2.32,1.63a2.77,2.77,0,0,0-.23-.46,2.7,2.7,0,0,0-.33-.39c.81-.48,1.63-1,2.41-1.49Zm-.05,1.05a3.23,3.23,0,0,0,.34.61,1.74,1.74,0,0,0,2.49.73,1.41,1.41,0,0,0,.31-2.13,9,9,0,0,0-.6-.81c-.68.41-1.36.82-2,1.26Z" transform="translate(-1.23 -1.43)"/><path class="cls-9" d="M13.91,83.63a2.47,2.47,0,0,0,.77.7c-1.1,2-1.77,3.4-3,6h0c1.08-.64,4.87-2.81,5.82-3.47a1.21,1.21,0,0,0,.22.27,1.27,1.27,0,0,0,.29.19c-.56,1.09-2.38,5-2.87,6.14h0c.88-.51,4.94-3,5.73-3.56a1.36,1.36,0,0,0,.23.29,1.41,1.41,0,0,0,.31.21c-1,.49-5.86,3.32-6.91,3.93a1.33,1.33,0,0,0-.23-.28,1.24,1.24,0,0,0-.3-.2c.93-1.92,1.84-3.87,2.79-5.94h0c-.92.52-3.86,2.21-5.71,3.29a1.36,1.36,0,0,0-.23-.29,1.4,1.4,0,0,0-.31-.2C11.05,89.62,13.43,84.76,13.91,83.63Z" transform="translate(-1.23 -1.43)"/><path class="cls-9" d="M20.42,92.76c.49-.8,1-1.63,1.41-2.45.51.35,1,.69,1.56,1s1.06.63,1.6.92a1.78,1.78,0,0,0-.2.26,1.74,1.74,0,0,0-.14.3,27.16,27.16,0,0,0-2.25-1.55c-.26.4-.48.71-.76,1.16l-.75,1.24a24.63,24.63,0,0,0,2.21,1.23,1.78,1.78,0,0,0-.2.27,1.73,1.73,0,0,0-.15.3c-.57-.44-1.67-1.15-2.1-1.41-.15.22-.29.45-.84,1.35-.44.71-.71,1.17-.84,1.41a18.07,18.07,0,0,0,2.46,1.35,2,2,0,0,0-.2.27,1.78,1.78,0,0,0-.14.29c-.5-.35-1-.69-1.56-1s-1.08-.64-1.64-.94c.53-.79,1.07-1.58,1.56-2.38Z" transform="translate(-1.23 -1.43)"/><path class="cls-9" d="M30.66,96.4A2.94,2.94,0,0,0,29,94.48c-1.57-.71-3.22-.27-4.23,1.94-.89,2-.39,3.62,1.39,4.43a3.53,3.53,0,0,0,1.66.37c.19-.39.38-.79.57-1.2s.4-1,.57-1.39a2.25,2.25,0,0,0,.43.26,1.46,1.46,0,0,0,.43.13c-.15.29-.47.93-1,2l-.36.81a9.47,9.47,0,0,1-2.63-.61c-2.25-1-3.1-2.89-2-5.22s3.08-2.91,5.32-1.89a5,5,0,0,1,2.15,1.67,2.83,2.83,0,0,0-.57.67Z" transform="translate(-1.23 -1.43)"/><path class="cls-9" d="M31.76,98.33c.31-.89.59-1.8.86-2.71a2.67,2.67,0,0,0,.46.22,3.05,3.05,0,0,0,.5.12c-.35.87-.7,1.76-1,2.65l-.62,1.78c-.31.89-.59,1.8-.86,2.7a2.77,2.77,0,0,0-.46-.22,2.8,2.8,0,0,0-.5-.12c.35-.87.7-1.76,1-2.65Z" transform="translate(-1.23 -1.43)"/><path class="cls-9" d="M37.49,97c.31,2.72.76,7,1,8.25a3.09,3.09,0,0,0-.52-.2,3.16,3.16,0,0,0-.55-.09c0-.78-.15-2.07-.26-3.11l-1.31-.38-1.23-.32a30.68,30.68,0,0,0-1.75,2.56,1.66,1.66,0,0,0-.36-.15,1.61,1.61,0,0,0-.39,0c1.75-2.18,3.47-4.35,5.18-6.56Zm-.72,1.33-1.83,2.38L36,101l1.13.29Z" transform="translate(-1.23 -1.43)"/><path class="cls-9" d="M45.5,106.66c-1.22-2.2-2.73-4.59-4.15-6.85-.08.4-.21,1-.41,2.18-.16.93-.51,3.21-.53,3.65a1.24,1.24,0,0,0-.35-.11,1.64,1.64,0,0,0-.39,0c.17-.49.78-3.23,1-4.65s.41-2.4.47-2.9l.16,0c1.34,2.2,3.16,5.19,4.18,6.73.33-1.93.69-4,.9-5.71a1.29,1.29,0,0,0,.34.11,1.14,1.14,0,0,0,.34,0c-.17.63-.64,2.74-.78,3.58-.19,1.1-.58,3.49-.65,4Z" transform="translate(-1.23 -1.43)"/><path class="cls-9" d="M50.8,102.34c.06-.94.08-1.89.09-2.83.33.05.67.1,1,.12s1,0,1.29,0c.62,0,2.27.16,2.16,2s-1.94,2.18-2.93,2.12c-.31,0-.57,0-.84-.09l0,.6c-.06.94-.08,1.89-.09,2.83a2.77,2.77,0,0,0-.5-.09,2.85,2.85,0,0,0-.51,0c.1-.94.2-1.88.26-2.82Zm.8.87a3.39,3.39,0,0,0,.73.13,1.72,1.72,0,0,0,2.05-1.7c.08-1.24-.58-1.55-1.65-1.61L51.8,100Z" transform="translate(-1.23 -1.43)"/><path class="cls-9" d="M59.48,99.65a3.92,3.92,0,1,1-3.84,4A3.64,3.64,0,0,1,59.48,99.65Zm0,.4c-1.62,0-2.85,1.12-2.82,3.55s1.29,3.49,2.92,3.47,2.87-1.12,2.83-3.55S61.12,100,59.48,100.05Z" transform="translate(-1.23 -1.43)"/><path class="cls-9" d="M64.54,102.49c-.06-.94-.17-1.88-.27-2.82a2.4,2.4,0,0,0,1-.06c0,.94,0,1.89.1,2.83.12,1.83.22,3.12.3,4.19a19.87,19.87,0,0,0,2.85-.33,1.06,1.06,0,0,0,0,.65c-.63,0-1.28,0-1.91.07s-1.28.1-1.92.18c0-.94,0-1.89-.1-2.83Z" transform="translate(-1.23 -1.43)"/><path class="cls-9" d="M71.62,98.88c1.32,2.4,3.36,6.16,4.05,7.25a3.17,3.17,0,0,0-.55,0,3.14,3.14,0,0,0-.54.12c-.29-.73-.93-1.86-1.42-2.78l-1.36.15-1.25.18a30.73,30.73,0,0,0-.64,3,1.57,1.57,0,0,0-.39,0,1.61,1.61,0,0,0-.37.1c.79-2.68,1.55-5.34,2.28-8Zm-.16,1.51-.78,2.9,1.12-.12L73,103Z" transform="translate(-1.23 -1.43)"/><path class="cls-9" d="M75.95,101.28c-.19-.92-.42-1.85-.65-2.76.39,0,.79-.1,1.17-.18s.76-.21,1.15-.29c1.15-.24,2.2,0,2.47,1.26a2.27,2.27,0,0,1-1.67,2.47c.63.55,2.81,2.51,3.54,3.08a4.09,4.09,0,0,0-.62.07,3.81,3.81,0,0,0-.58.17,32,32,0,0,0-3.37-3l-.39.08.16.78c.19.92.42,1.85.65,2.76a2.85,2.85,0,0,0-.51,0,2.88,2.88,0,0,0-.49.16c-.15-.93-.3-1.87-.49-2.79Zm1,.44a3.15,3.15,0,0,0,.69-.09c.84-.17,1.87-.76,1.61-2a1.41,1.41,0,0,0-1.87-1.08,8.85,8.85,0,0,0-1,.26c.13.79.26,1.57.42,2.34Z" transform="translate(-1.23 -1.43)"/><path class="cls-9" d="M84.29,99.24c-.29-.89-.62-1.79-.95-2.67a2.76,2.76,0,0,0,.5-.11,3,3,0,0,0,.47-.21c.25.91.5,1.83.79,2.72l.58,1.79c.29.9.62,1.79.95,2.67a2.76,2.76,0,0,0-.5.11,2.61,2.61,0,0,0-.47.21c-.25-.91-.5-1.83-.79-2.72Z" transform="translate(-1.23 -1.43)"/><path class="cls-9" d="M94.07,100.6c-2.23-1.16-4.81-2.32-7.24-3.42.15.38.4,1,.86,2,.38.86,1.35,3,1.57,3.34a1.3,1.3,0,0,0-.36.1,1.69,1.69,0,0,0-.33.2c-.13-.5-1.13-3.12-1.71-4.45s-1-2.23-1.21-2.67l.15-.07C88.14,96.76,91.3,98.25,93,99c-.79-1.79-1.64-3.75-2.4-5.26a1.32,1.32,0,0,0,.35-.09,1.16,1.16,0,0,0,.28-.18c.2.62,1,2.64,1.32,3.42.45,1,1.44,3.23,1.65,3.67Z" transform="translate(-1.23 -1.43)"/><path class="cls-9" d="M95.35,98a1.8,1.8,0,0,0,2,.07,1.47,1.47,0,0,0,.4-2.14c-1.09-1.7-3.38.8-4.77-1.37a2,2,0,0,1,.79-3,2.22,2.22,0,0,1,1.57-.4,3.52,3.52,0,0,0,.26.92l-.1.07a1.33,1.33,0,0,0-1.6-.2,1.29,1.29,0,0,0-.4,1.87c1.1,1.72,3.4-.76,4.71,1.28a2.4,2.4,0,0,1-.82,3.45,2.46,2.46,0,0,1-1.78.4,3.41,3.41,0,0,0-.36-.93Z" transform="translate(-1.23 -1.43)"/><path class="cls-9" d="M98.94,91.5q-.74-.85-1.51-1.69a19.72,19.72,0,0,0-1.6,1.55,1.3,1.3,0,0,0-.19-.3,1.4,1.4,0,0,0-.26-.22c.69-.56,1.38-1.14,2.05-1.72s1.33-1.19,2-1.81a1.21,1.21,0,0,0,.45.52,19.84,19.84,0,0,0-1.75,1.37q.72.87,1.47,1.73l1.24,1.42c.62.71,1.28,1.4,1.93,2.08a2.86,2.86,0,0,0-.42.29,2.8,2.8,0,0,0-.35.38c-.59-.74-1.18-1.48-1.8-2.19Z" transform="translate(-1.23 -1.43)"/><path class="cls-9" d="M101.84,88.7c-.7-.62-1.44-1.22-2.17-1.82a2.7,2.7,0,0,0,.38-.34,3,3,0,0,0,.3-.42c.68.65,1.36,1.32,2.06,1.94l1.41,1.25c.7.63,1.44,1.23,2.17,1.82a2.83,2.83,0,0,0-.38.35,2.89,2.89,0,0,0-.3.42c-.68-.66-1.36-1.32-2.06-1.94Z" transform="translate(-1.23 -1.43)"/><path class="cls-9" d="M104.35,85.57q-.94-.64-1.89-1.25a19.94,19.94,0,0,0-1.15,1.9A1.27,1.27,0,0,0,101,86a1.35,1.35,0,0,0-.31-.15c.53-.72,1.05-1.45,1.56-2.18s1-1.49,1.46-2.25a1.35,1.35,0,0,0,.26.24,1.41,1.41,0,0,0,.31.15A19.76,19.76,0,0,0,103,83.56q.92.66,1.85,1.3l1.55,1.06c.78.53,1.59,1,2.39,1.53a2.82,2.82,0,0,0-.33.39,3,3,0,0,0-.24.45c-.75-.56-1.52-1.13-2.29-1.66Z" transform="translate(-1.23 -1.43)"/><path class="cls-9" d="M106.06,76.13a1.82,1.82,0,0,0,.22-.37,1,1,0,0,0,.07-.31c.9.47,2.65,1.3,4.11,1.95,1.77.78,2.47,2.24,1.74,4-.8,1.9-2.09,2.34-4,1.51-.62-.26-1.07-.51-1.57-.72-1.11-.47-2-.82-2.63-1.05a3,3,0,0,0,.26-.48,2,2,0,0,0,.12-.43c.57.31,1.92.95,3.41,1.58s3.15,1.34,4.06-.8-1.17-3-2.44-3.51C107.44,76.65,106.48,76.24,106.06,76.13Z" transform="translate(-1.23 -1.43)"/><path class="cls-9" d="M109.71,73.51q-1.1-.27-2.21-.5a19.41,19.41,0,0,0-.41,2.19,1.26,1.26,0,0,0-.33-.13,1.42,1.42,0,0,0-.34,0c.24-.86.47-1.72.68-2.59s.4-1.75.58-2.62A1.44,1.44,0,0,0,108,70a1.32,1.32,0,0,0,.34,0,20,20,0,0,0-.64,2.13c.73.2,1.46.38,2.2.56l1.83.44c.92.22,1.85.4,2.78.58a2.74,2.74,0,0,0-.17.48,2.86,2.86,0,0,0-.07.51c-.91-.26-1.82-.52-2.74-.75Z" transform="translate(-1.23 -1.43)"/><path class="cls-9" d="M110.53,69.59c-.93-.14-1.88-.23-2.8-.32.12-.61.23-1.22.32-1.83s.15-1.23.21-1.84a1.77,1.77,0,0,0,.32.08,1.59,1.59,0,0,0,.33,0,27,27,0,0,0-.53,2.68c.46.08.84.16,1.37.24l1.43.2c.18-1.21.22-1.9.25-2.51a1.93,1.93,0,0,0,.33.08,1.62,1.62,0,0,0,.33,0c-.18.7-.39,2-.46,2.48l1.57.24c.82.12,1.35.19,1.63.21a18.18,18.18,0,0,0,.26-2.79,1.86,1.86,0,0,0,.33.08,1.66,1.66,0,0,0,.32,0c-.12.6-.23,1.22-.32,1.84s-.16,1.25-.21,1.88c-.94-.18-1.87-.36-2.8-.49Z" transform="translate(-1.23 -1.43)"/><ellipse class="cls-1" cx="38.51" cy="62.67" rx="24.01" ry="24.13"/><path class="cls-2" d="M35.29,43.13s.6.61,1,.4.68-.45-.08-.81S35,42.81,35.29,43.13Z" transform="translate(-1.23 -1.43)"/><path class="cls-2" d="M23.67,59.83s-.72,1.13.4,1.13,1.09-.49,1.33-.53,1,.32,1.65,0,.16-.65.16-1.05.52-.85.52-1.46-.56-.81-.88-1-.52.08-1,0-.4-.08-.93.12-.88.12-1,.69A3.58,3.58,0,0,0,24,59,1.12,1.12,0,0,1,23.67,59.83Z" transform="translate(-1.23 -1.43)"/><path class="cls-2" d="M25.4,62.21s.8.4,1.13.28,1.61-.2.6-1.17-.93-.28-1.53-.08S25.08,61.93,25.4,62.21Z" transform="translate(-1.23 -1.43)"/><path class="cls-2" d="M19.89,73s-.68.2-.64-.36,0-2,.48-2.55-.08-1.86.48-2,.8.73,1.09.73,1.09.41,1.37.36.56-.36.32-.4-1-.08-1-.36-.08-1.21.8-.93.56.89.56.89,1-.57,1-1.37a12.8,12.8,0,0,0-.12-1.66c0-.4-.2-.85.44-.93s1.57-.45,1.17-.69-.32-1.05.84-.93,1,.93.72,1.17-.4.69-.72.81-1,.45,0,.65.2.77.08,1a4.15,4.15,0,0,0-.2,1.21c0,.49-.4,1.62-.89,1.82a1.75,1.75,0,0,0-.84,1c-.08.24-.48.08-.6.45s.44.85.12,1.17-.48,1.42-1.49,1.29-.68-.52-.6-1.21,0-.73-.36-.48-.08.89-.56,1.21-1,.69-1,.28S20.09,72.68,19.89,73Z" transform="translate(-1.23 -1.43)"/><path class="cls-2" d="M27.65,66.09s.76.28.93.08a1.64,1.64,0,0,0,.24-1c0-.41-.16-1,.28-1.29s.6-.81.4-1.05-.76-.16-1.09.12S28.7,64,28,64,27.37,65.61,27.65,66.09Z" transform="translate(-1.23 -1.43)"/><path class="cls-2" d="M29.66,66.17s-.76-.41-.52-.85c0,0-.08-.77.56-.81s1.13.48,1.89.44.56-.53,1.17-.69,1.13-.2,1.37.24.85,1.66.56,1.78-.52.61-1.33.44-.81-.4-1.57-.52-1,.36-1.41,0A.59.59,0,0,0,29.66,66.17Z" transform="translate(-1.23 -1.43)"/><path class="cls-2" d="M30.51,63.75a2.6,2.6,0,0,1,.89-.65A5.22,5.22,0,0,1,32.48,63c.32,0,.68.64.28.64S30.51,63.75,30.51,63.75Z" transform="translate(-1.23 -1.43)"/><path class="cls-2" d="M30.39,62.62s-.72,0-.4-.49a2,2,0,0,1,1-.77c.28-.16.64-.61.89,0s.24,1.17-.4,1.29A2.39,2.39,0,0,1,30.39,62.62Z" transform="translate(-1.23 -1.43)"/><path class="cls-2" d="M28.17,62.33s-.36-.57.08-.89.76-.12,1,.41C29.54,62.66,28.62,62.58,28.17,62.33Z" transform="translate(-1.23 -1.43)"/><path class="cls-2" d="M29.46,60.84s.72-.44.48-.77,0-.52.08-.69a.9.9,0,0,0-.4-.89c-.36-.24-.2.2-.44.2s-.76-.16-1,.77.32,1.62.56,1.62A2.07,2.07,0,0,0,29.46,60.84Z" transform="translate(-1.23 -1.43)"/><path class="cls-2" d="M28.21,57.92s.36.32.56,0,.72-.41.6-.93,0-.41-.52-.81-.76-1-1.37-.65-.6.57-.52.93.84.57.93.77S28.21,57.92,28.21,57.92Z" transform="translate(-1.23 -1.43)"/><path class="cls-2" d="M29.94,58.17s.28-.77.48-.77.48.28.6.77a5.77,5.77,0,0,1,.28,1.5s-.84.32-.89-.16A5,5,0,0,0,29.94,58.17Z" transform="translate(-1.23 -1.43)"/><path class="cls-2" d="M30.71,60.8a.66.66,0,0,1-.2-.61c.08-.36.48-.2.64-.16s.28.73.28.73Z" transform="translate(-1.23 -1.43)"/><path class="cls-2" d="M24.15,63.38s.12.4.36.12.93-.36.64-.89-.44-.61-.76-.69,0-.49,0-.65-.6-.28-.77-.2-.52.32-.52.65.08.49.52.52S24.19,63.18,24.15,63.38Z" transform="translate(-1.23 -1.43)"/><path class="cls-2" d="M33.11,81.41s.32.57.72.49,1.81.28,1.81,1.33-.6,1.37-2.17,1.37c-.16,0-1.53-1.33-1.53-1.86s.08-.73,0-.89S32.83,81,33.11,81.41Z" transform="translate(-1.23 -1.43)"/><path class="cls-2" d="M37.34,78.87s-.12.52.32.52.88-.28.76-.49-.6-.61-.76-.41S37.34,78.87,37.34,78.87Z" transform="translate(-1.23 -1.43)"/><path class="cls-2" d="M43,74.7c-.36-.32-.36-.53-.88-.81s-1.09-.89-1-1.37-.36-1.21.12-1.46.44-.2,1,.33.92,1.13,1.29,1.13,1-.08,1,.61-.2,1.33-.56.93-.6-.48-.64,0S43,74.7,43,74.7Z" transform="translate(-1.23 -1.43)"/><path class="cls-2" d="M43,70.74s-1,.49-.2.89,1.37,1.09,1.25,0A.94.94,0,0,0,43,70.74Z" transform="translate(-1.23 -1.43)"/><path class="cls-2" d="M45.54,69.61s-.72.28-.8,0,0-1,.32-1,.72.12.76.41S45.54,69.61,45.54,69.61Z" transform="translate(-1.23 -1.43)"/><path class="cls-2" d="M46.35,68.64s-.84,0-.8-.61,0-.52.4-.32,1.17.28.88.57A1.67,1.67,0,0,1,46.35,68.64Z" transform="translate(-1.23 -1.43)"/><path class="cls-2" d="M52,73s-1,.24-1.13-.12a14.92,14.92,0,0,1-1.41-2.79,8.39,8.39,0,0,1-.28-1.66c0-.73.28-1.38.6-.81a6.31,6.31,0,0,1,.68,1.66c.36,1.09.28,1.78,1.29,2.47s1.41,0,1.17.45A2.67,2.67,0,0,1,52,73Z" transform="translate(-1.23 -1.43)"/><path class="cls-2" d="M44.1,75.47s-.8.45-.24.65S44.54,76.16,44.1,75.47Z" transform="translate(-1.23 -1.43)"/><path class="cls-2" d="M46.64,55.5c-.44-.61-.6-.61-.52-.81s.36-.61.68-.48,1.57.73,1,1.21-.52.77-.84.65S46.64,55.5,46.64,55.5Z" transform="translate(-1.23 -1.43)"/><path class="cls-2" d="M39.76,49.36c-.12,0-.88.12-.88-.2s-.2-.89.24-.89.43.13.64.44A.54.54,0,0,1,39.76,49.36Z" transform="translate(-1.23 -1.43)"/><path class="cls-2" d="M17.79,67.91a.42.42,0,0,1,.48-.52c.28,0,.44.48.2.57S17.83,68.27,17.79,67.91Z" transform="translate(-1.23 -1.43)"/><path class="cls-2" d="M18.23,67c-.12-.08-.56-.16-.4-.57s.12-.4.48-.28.56.36.44.61S18.23,67,18.23,67Z" transform="translate(-1.23 -1.43)"/><path class="cls-2" d="M18.68,65.93s-.44-.4-.16-.61.36-.53.93-.2,1.25.2,1,.93-1,1.74-1.25,1.13S19.16,66.21,18.68,65.93Z" transform="translate(-1.23 -1.43)"/><path class="cls-2" d="M45.39,54a.51.51,0,0,1-.36-.53c0-.4.36-.36.6-.24S45.39,54,45.39,54Z" transform="translate(-1.23 -1.43)"/><path class="cls-2" d="M38.88,87.8s.24-.79.46-.89.42-.16.42.38S38.88,87.8,38.88,87.8Z" transform="translate(-1.23 -1.43)"/><path class="cls-2" d="M37.65,86.67s-.54.1-.56-.28.06-.55.3-.61.75.29.6.45S37.65,86.67,37.65,86.67Z" transform="translate(-1.23 -1.43)"/><path class="cls-2" d="M63.75,64.11A24.1,24.1,0,0,0,50.16,42.39a14.76,14.76,0,0,1-2.31.29c-.64,0,.12-.93.12-.93a2.67,2.67,0,0,0-1.81.57c-.93.69-.44-.57.12-.73.18-.05.32-.28.41-.55a23.85,23.85,0,0,0-2.9-.68,9.9,9.9,0,0,1-2.42,1.15c-.8.24-1-.44-1.37.12a1.54,1.54,0,0,0,.28,1.74c.32.41.08.36-.24.41s-.84.65-1.21.48-.76-.73-1.41-.69-.44.73-.76.73-.72.28-.4.69.24.93.56,1.09.77-.32,1-.53.44.65.85,1.17,1.53.77,1.77,1,1.69.57,1.93.32.52-.49.81-.16a2.12,2.12,0,0,0,1.37.4c.48,0,.24.24.2.77a1.58,1.58,0,0,0,1.37,1.5c.8,0,.28.4.52.81a5.48,5.48,0,0,0,.84,1.13,1.3,1.3,0,0,1,.4.65s-.72-.12-.76.24-.44,1.13.84.81-.24-.77.4-.77c1.31,0,1.21-.24,1.41.12s-.28.57.52.57.68.28.36.4-.84.44-.48,1.09-.2.69-.16,1.17.76-.29,1.25.44.28,1,.6,1.74.64,1-.52.69-.72-.81-1.41-.4-.4.57-.48,1.45-.64.24-1.29.52-.44,1-.44,1.3-1,.44-.92.81,1,.2,1.33.4.68-.32.72-.61-.52-.6-.52-.6a2.09,2.09,0,0,0,.84,0c.2-.12-.2-.81.52-.53s.81,1.13,1.17,1.58.44.85.76,1.17a1.25,1.25,0,0,0,.92.24c-.56.44.28,1.17.6,1.05A1.84,1.84,0,0,1,54,66s-.48.37-.4.53-.2.65-.44.69.12.73,1.09.85a14.1,14.1,0,0,1,2.21.73c.68.16,1.13.52,1.09.81s-.36.24-.64-.2-.56-.2-1.13-.53a10,10,0,0,0-2.61-.69c-1-.2-1,.65-.84.85s.76.16,1.17,1.05.48.49,1.17.44.56.24.08.57-.76-.12-.36.73.12.85-.28.85,0,.77-.64,1-.32,1.74-.32,2.3,0,.4-.24.08-.32-.2-.81-.2-.84.6-.68.77.88.81,1.13.81.24.16.16.45a3.79,3.79,0,0,0-.2,1.29c.08.24-.2.36-.2.36a1,1,0,0,0-.36.89c.08.52-.6-.12-1-.45a1,1,0,0,0-.84-.32c-.28,0,.24-.36,1-.32s.85-.36.88-1.13-.2-.77-1.73-.73-1.09.12-1.21,0-.84-.28-1-.4a.75.75,0,0,0-.89.49c-.08.4-.16.36-.48,0s-1,.56-1.33,1a15.34,15.34,0,0,0-1.17,1.37c-.4.65-1.57,1.38-.52,1.46s.28,0-.08,1.5-.89,1.41-.52,1.86.2.2-.28.53a3.18,3.18,0,0,0-1,1.66,2.69,2.69,0,0,0,.14,1.2A23.67,23.67,0,0,0,47.41,87a1.12,1.12,0,0,0,0-.32,11.46,11.46,0,0,1-.64-1.86c0-.56.56-.81.56-1.25s0-1.58.4-1.66.32,1.7,0,2,.16,1,.68,1.45,0,.12.33,1.14A24.1,24.1,0,0,0,63.75,64.11Z" transform="translate(-1.23 -1.43)"/><path class="cls-2" d="M28.17,44.38a4.62,4.62,0,0,1-1.78-.26A24.1,24.1,0,0,0,15.87,62.3a1.8,1.8,0,0,1,1.76,1.24c.2.69.92.81,1.45,1.13a3.51,3.51,0,0,0,1.53.28c.48.08.16,1,.72,1.5s.92-.28,1.33.08.56,0,.88-.45.2-1.13-.48-1-.4-.28,0-.49a1.52,1.52,0,0,0,.68-1.45c0-.61-.36-.69-.72-.69s-.68-.32-.48-.48a.65.65,0,0,0,.16-.85c-.2-.36-.08-.36,0-.85s.36-.36.76-.69.28-1.13.08-1.21-.24-.36,0-.65.16-1,1-1,.6-.45,1.09-.61,1.21-1.38,2.05-1.46.6-2,.76-2.79,1.57-.57,1.69-.69A3.71,3.71,0,0,1,33,50.61c1.49.32,1.69-1.33,2-1.78s1.65-1.58.16-2.34-.6-1-.6-1c.36,0,1.45.2.72-1.05s-1.29.48-1.81-.16.48-.57.48-.57c.38,0,.52-1.66.16-2A3.53,3.53,0,0,0,32,41.32a23.83,23.83,0,0,0-3.25,1.4C28.56,43.45,28.64,44.26,28.17,44.38Z" transform="translate(-1.23 -1.43)"/><path class="cls-2" d="M18.63,71c.36-.57,0-.57,0-1.21s.36-.73,0-1.33-.56,0-.68.2-.56,0-1,0l-.57,0a24.08,24.08,0,0,0,1.15,4.1,2.53,2.53,0,0,1,.91-.26C19.31,72.32,18.27,71.59,18.63,71Z" transform="translate(-1.23 -1.43)"/><path class="cls-2" d="M37.78,70.21c-.68.12.2-.61.28-1.13a.86.86,0,0,0-.72-.93,6.91,6.91,0,0,0-1.41-.24,1.5,1.5,0,0,1-1.13-.61c-.24-.28-.81,0-1.09-.2a2,2,0,0,0-1.29,0c-.32.12-.36-.24-1.25-.36s.24,1.13-.56.69-.24-.12-1,.45,0,1.09.36,1.5-.28.69-.36.93-.48.93-.56,1.17-.76.44-.76.44-.93.2-.52.69.56.69-.28.61.16,1-1,1.05S25.07,75.8,24,76.52s-1.13,2.75-1,3.19,0,.38,0,1.43q.46.46.94.89c.22-.18.42-.4.55-.51.36-.32.89-.89,1.25-.89a2.9,2.9,0,0,0,1.41-.89c.2-.28,1.09-.16,1.53,0s1.93-.69,2.21-.48a7.76,7.76,0,0,0,2.53.32c.6,0-.16-.77.92-.85s0-2,.72-2.22.84,0,1-.61.64-.57.68-.85-.4-.93.08-1.21.6-1.29,1-1.82.8-.61.92-1.05S38.46,70.09,37.78,70.21Z" transform="translate(-1.23 -1.43)"/><line class="cls-6" x1="38.51" y1="59.2" x2="38.51" y2="38.7"/><line class="cls-6" x1="36.79" y1="59.66" x2="26.6" y2="41.91"/><line class="cls-6" x1="35.53" y1="60.92" x2="17.87" y2="50.67"/><line class="cls-6" x1="35.07" y1="62.64" x2="14.67" y2="62.64"/><line class="cls-6" x1="35.53" y1="64.37" x2="17.86" y2="74.62"/><line class="cls-6" x1="36.78" y1="65.64" x2="26.58" y2="83.39"/><line class="cls-6" x1="38.5" y1="66.11" x2="38.5" y2="86.6"/><line class="cls-6" x1="40.22" y1="65.64" x2="50.42" y2="83.4"/><line class="cls-6" x1="41.48" y1="64.38" x2="59.14" y2="74.63"/><line class="cls-6" x1="41.94" y1="62.66" x2="62.34" y2="62.66"/><line class="cls-6" x1="41.49" y1="60.93" x2="59.15" y2="50.68"/><line class="cls-6" x1="40.23" y1="59.66" x2="50.43" y2="41.91"/><ellipse class="cls-6" cx="38.51" cy="62.65" rx="8.08" ry="8.12"/><ellipse class="cls-6" cx="38.51" cy="62.65" rx="15.8" ry="15.88"/><ellipse class="cls-6" cx="38.51" cy="62.65" rx="24.01" ry="24.13"/><line class="cls-6" x1="75.2" y1="59.2" x2="75.2" y2="38.7"/><line class="cls-6" x1="73.48" y1="59.66" x2="63.28" y2="41.91"/><line class="cls-6" x1="72.22" y1="60.92" x2="61.07" y2="54.45"/><line class="cls-6" x1="71.76" y1="62.64" x2="62.57" y2="62.64"/><line class="cls-6" x1="72.21" y1="64.37" x2="60.98" y2="70.89"/><line class="cls-6" x1="73.47" y1="65.64" x2="63.27" y2="83.39"/><line class="cls-6" x1="75.19" y1="66.11" x2="75.19" y2="86.6"/><line class="cls-6" x1="76.91" y1="65.64" x2="87.11" y2="83.4"/><line class="cls-6" x1="78.17" y1="64.38" x2="95.83" y2="74.63"/><line class="cls-6" x1="78.63" y1="62.66" x2="99.03" y2="62.66"/><line class="cls-6" x1="78.17" y1="60.93" x2="95.84" y2="50.68"/><line class="cls-6" x1="76.92" y1="59.66" x2="87.12" y2="41.91"/><ellipse class="cls-6" cx="75.19" cy="62.65" rx="8.08" ry="8.12"/><path class="cls-6" d="M62.51,71.62a15.88,15.88,0,1,0,0-15" transform="translate(-1.23 -1.43)"/><path class="cls-6" d="M58.22,79.63a24.13,24.13,0,1,0,0-31.16" transform="translate(-1.23 -1.43)"/></svg>